<mxfile host="app.diagrams.net" agent="Mozilla/5.0 (Windows NT 10.0; Win64; x64) AppleWebKit/537.36 (KHTML, like Gecko) Chrome/130.0.0.0 Safari/537.36 Edg/130.0.0.0" version="25.0.1">
  <diagram name="第 1 页" id="6FT4p6AzJ_ILkLrHjv3-">
    <mxGraphModel dx="381" dy="-2742" grid="1" gridSize="10" guides="1" tooltips="1" connect="1" arrows="1" fold="1" page="1" pageScale="1" pageWidth="827" pageHeight="1169" math="0" shadow="0">
      <root>
        <mxCell id="0" />
        <mxCell id="1" parent="0" />
        <mxCell id="Y8klcHg_xmhRVvrzgp0a-1558" value="" style="group;fontFamily=Times New Roman;" vertex="1" connectable="0" parent="1">
          <mxGeometry x="1027.5" y="4065" width="1205" height="243.70000000000073" as="geometry" />
        </mxCell>
        <mxCell id="Y8klcHg_xmhRVvrzgp0a-1559" value="" style="rounded=1;whiteSpace=wrap;html=1;fillColor=#dae8fc;strokeColor=default;strokeWidth=2;fontSize=22;fontFamily=Times New Roman;opacity=20;" vertex="1" parent="Y8klcHg_xmhRVvrzgp0a-1558">
          <mxGeometry y="118.7" width="1140" height="134" as="geometry" />
        </mxCell>
        <mxCell id="Y8klcHg_xmhRVvrzgp0a-1560" style="edgeStyle=orthogonalEdgeStyle;rounded=0;orthogonalLoop=1;jettySize=auto;html=1;exitX=1;exitY=0.5;exitDx=0;exitDy=0;entryX=0;entryY=0.5;entryDx=0;entryDy=0;fontFamily=Times New Roman;" edge="1" parent="Y8klcHg_xmhRVvrzgp0a-1558" source="Y8klcHg_xmhRVvrzgp0a-1561" target="Y8klcHg_xmhRVvrzgp0a-1581">
          <mxGeometry relative="1" as="geometry" />
        </mxCell>
        <mxCell id="Y8klcHg_xmhRVvrzgp0a-1561" value="Select Node Candidate Set" style="rounded=0;whiteSpace=wrap;html=1;strokeColor=#23445d;fontFamily=Times New Roman;fontSize=22;fillColor=#bac8d3;strokeWidth=2;opacity=40;align=center;verticalAlign=middle;fontColor=default;" vertex="1" parent="Y8klcHg_xmhRVvrzgp0a-1558">
          <mxGeometry x="55" y="151.7" width="165" height="70" as="geometry" />
        </mxCell>
        <mxCell id="Y8klcHg_xmhRVvrzgp0a-1562" style="edgeStyle=orthogonalEdgeStyle;rounded=0;orthogonalLoop=1;jettySize=auto;html=1;exitX=1;exitY=0.5;exitDx=0;exitDy=0;entryX=0;entryY=0.5;entryDx=0;entryDy=0;fontFamily=Times New Roman;" edge="1" parent="Y8klcHg_xmhRVvrzgp0a-1558" source="Y8klcHg_xmhRVvrzgp0a-1563" target="Y8klcHg_xmhRVvrzgp0a-1569">
          <mxGeometry relative="1" as="geometry" />
        </mxCell>
        <mxCell id="Y8klcHg_xmhRVvrzgp0a-1563" value="Buffer Adjust / Node Filter" style="rounded=0;whiteSpace=wrap;html=1;strokeColor=#9673a6;fontFamily=Times New Roman;fontSize=22;fillColor=#e1d5e7;strokeWidth=2;" vertex="1" parent="Y8klcHg_xmhRVvrzgp0a-1558">
          <mxGeometry x="520" y="151.7" width="170" height="70" as="geometry" />
        </mxCell>
        <mxCell id="Y8klcHg_xmhRVvrzgp0a-1564" style="edgeStyle=orthogonalEdgeStyle;rounded=0;orthogonalLoop=1;jettySize=auto;html=1;exitX=1;exitY=0.5;exitDx=0;exitDy=0;entryX=0;entryY=0.5;entryDx=0;entryDy=0;fontFamily=Times New Roman;" edge="1" parent="Y8klcHg_xmhRVvrzgp0a-1558" source="Y8klcHg_xmhRVvrzgp0a-1581" target="Y8klcHg_xmhRVvrzgp0a-1563">
          <mxGeometry relative="1" as="geometry" />
        </mxCell>
        <mxCell id="Y8klcHg_xmhRVvrzgp0a-1565" style="edgeStyle=orthogonalEdgeStyle;rounded=0;orthogonalLoop=1;jettySize=auto;html=1;exitX=1;exitY=0.5;exitDx=0;exitDy=0;entryX=0;entryY=0.5;entryDx=0;entryDy=0;fontFamily=Times New Roman;" edge="1" parent="Y8klcHg_xmhRVvrzgp0a-1558" source="Y8klcHg_xmhRVvrzgp0a-1569" target="Y8klcHg_xmhRVvrzgp0a-1577">
          <mxGeometry relative="1" as="geometry" />
        </mxCell>
        <mxCell id="Y8klcHg_xmhRVvrzgp0a-1566" value="Yes" style="edgeLabel;html=1;align=center;verticalAlign=middle;resizable=0;points=[];fontFamily=Times New Roman;" vertex="1" connectable="0" parent="Y8klcHg_xmhRVvrzgp0a-1565">
          <mxGeometry x="-0.1055" y="-1" relative="1" as="geometry">
            <mxPoint as="offset" />
          </mxGeometry>
        </mxCell>
        <mxCell id="Y8klcHg_xmhRVvrzgp0a-1567" style="edgeStyle=orthogonalEdgeStyle;rounded=0;orthogonalLoop=1;jettySize=auto;html=1;exitX=0.5;exitY=0;exitDx=0;exitDy=0;fontFamily=Times New Roman;" edge="1" parent="Y8klcHg_xmhRVvrzgp0a-1558" source="Y8klcHg_xmhRVvrzgp0a-1569">
          <mxGeometry relative="1" as="geometry">
            <mxPoint x="30" y="186.70000000000073" as="targetPoint" />
            <Array as="points">
              <mxPoint x="859" y="137" />
              <mxPoint x="30" y="137" />
            </Array>
          </mxGeometry>
        </mxCell>
        <mxCell id="Y8klcHg_xmhRVvrzgp0a-1568" value="No" style="edgeLabel;html=1;align=center;verticalAlign=middle;resizable=0;points=[];fontFamily=Times New Roman;" vertex="1" connectable="0" parent="Y8klcHg_xmhRVvrzgp0a-1567">
          <mxGeometry x="-0.3905" y="1" relative="1" as="geometry">
            <mxPoint as="offset" />
          </mxGeometry>
        </mxCell>
        <mxCell id="Y8klcHg_xmhRVvrzgp0a-1569" value="Connect?&amp;nbsp;" style="rhombus;whiteSpace=wrap;html=1;fontSize=22;fontFamily=Times New Roman;fillColor=#bac8d3;strokeColor=#23445d;opacity=40;strokeWidth=2;" vertex="1" parent="Y8klcHg_xmhRVvrzgp0a-1558">
          <mxGeometry x="744" y="145.70000000000073" width="230" height="82" as="geometry" />
        </mxCell>
        <mxCell id="Y8klcHg_xmhRVvrzgp0a-1570" style="edgeStyle=orthogonalEdgeStyle;rounded=0;orthogonalLoop=1;jettySize=auto;html=1;exitX=1;exitY=0.5;exitDx=0;exitDy=0;entryX=0;entryY=0.5;entryDx=0;entryDy=0;fontFamily=Times New Roman;fontSize=26;" edge="1" parent="Y8klcHg_xmhRVvrzgp0a-1558" source="Y8klcHg_xmhRVvrzgp0a-1571" target="Y8klcHg_xmhRVvrzgp0a-1576">
          <mxGeometry relative="1" as="geometry" />
        </mxCell>
        <mxCell id="Y8klcHg_xmhRVvrzgp0a-1571" value="&lt;span&gt;Heuristic Iteration Optimal&lt;/span&gt;" style="rounded=0;whiteSpace=wrap;html=1;strokeColor=#6c8ebf;fontFamily=Times New Roman;strokeWidth=2;align=center;verticalAlign=middle;fontSize=26;fontColor=default;fillColor=#dae8fc;opacity=70;" vertex="1" parent="Y8klcHg_xmhRVvrzgp0a-1558">
          <mxGeometry x="610" y="0.5" width="250" height="80" as="geometry" />
        </mxCell>
        <mxCell id="Y8klcHg_xmhRVvrzgp0a-1572" style="edgeStyle=orthogonalEdgeStyle;rounded=0;orthogonalLoop=1;jettySize=auto;html=1;exitX=1;exitY=0.5;exitDx=0;exitDy=0;fontFamily=Times New Roman;fontSize=26;" edge="1" parent="Y8klcHg_xmhRVvrzgp0a-1558" source="Y8klcHg_xmhRVvrzgp0a-1573" target="Y8klcHg_xmhRVvrzgp0a-1571">
          <mxGeometry relative="1" as="geometry" />
        </mxCell>
        <mxCell id="Y8klcHg_xmhRVvrzgp0a-1573" value="&lt;span&gt;CTS Initial Solution Generate&amp;nbsp;&lt;/span&gt;" style="rounded=0;whiteSpace=wrap;html=1;strokeColor=#9673a6;fontFamily=Times New Roman;strokeWidth=4;fillColor=#e1d5e7;align=center;verticalAlign=middle;fontSize=26;opacity=80;" vertex="1" parent="Y8klcHg_xmhRVvrzgp0a-1558">
          <mxGeometry x="267" width="260" height="81" as="geometry" />
        </mxCell>
        <mxCell id="Y8klcHg_xmhRVvrzgp0a-1574" style="edgeStyle=orthogonalEdgeStyle;rounded=0;orthogonalLoop=1;jettySize=auto;html=1;exitX=1;exitY=0.5;exitDx=0;exitDy=0;entryX=0;entryY=0.5;entryDx=0;entryDy=0;fontFamily=Times New Roman;fontSize=26;" edge="1" parent="Y8klcHg_xmhRVvrzgp0a-1558" source="Y8klcHg_xmhRVvrzgp0a-1575" target="Y8klcHg_xmhRVvrzgp0a-1573">
          <mxGeometry relative="1" as="geometry" />
        </mxCell>
        <mxCell id="Y8klcHg_xmhRVvrzgp0a-1575" value="START" style="rounded=1;whiteSpace=wrap;html=1;strokeColor=#6c8ebf;fontFamily=Times New Roman;fillColor=#dae8fc;strokeWidth=2;fontSize=26;" vertex="1" parent="Y8klcHg_xmhRVvrzgp0a-1558">
          <mxGeometry x="30" y="16.75" width="100" height="47.5" as="geometry" />
        </mxCell>
        <mxCell id="Y8klcHg_xmhRVvrzgp0a-1576" value="END" style="rounded=1;whiteSpace=wrap;html=1;strokeColor=#6c8ebf;fontFamily=Times New Roman;fillColor=#dae8fc;strokeWidth=2;fontSize=26;" vertex="1" parent="Y8klcHg_xmhRVvrzgp0a-1558">
          <mxGeometry x="1021.75" y="16.75" width="100" height="47.5" as="geometry" />
        </mxCell>
        <mxCell id="Y8klcHg_xmhRVvrzgp0a-1577" value="&lt;span&gt;END&lt;/span&gt;" style="rounded=1;whiteSpace=wrap;html=1;strokeColor=#23445d;fontFamily=Times New Roman;fontSize=22;fillColor=#bac8d3;opacity=40;" vertex="1" parent="Y8klcHg_xmhRVvrzgp0a-1558">
          <mxGeometry x="1016.75" y="167.12500000000045" width="110" height="39.15" as="geometry" />
        </mxCell>
        <mxCell id="Y8klcHg_xmhRVvrzgp0a-1578" value="" style="endArrow=none;dashed=1;html=1;rounded=0;entryX=0;entryY=1;entryDx=0;entryDy=0;fillColor=#dae8fc;strokeColor=#6c8ebf;strokeWidth=3;fontFamily=Times New Roman;exitX=0.018;exitY=0.01;exitDx=0;exitDy=0;exitPerimeter=0;" edge="1" parent="Y8klcHg_xmhRVvrzgp0a-1558" source="Y8klcHg_xmhRVvrzgp0a-1559" target="Y8klcHg_xmhRVvrzgp0a-1573">
          <mxGeometry width="50" height="50" relative="1" as="geometry">
            <mxPoint x="20" y="109.70000000000073" as="sourcePoint" />
            <mxPoint x="560" y="-86.2999999999995" as="targetPoint" />
          </mxGeometry>
        </mxCell>
        <mxCell id="Y8klcHg_xmhRVvrzgp0a-1579" value="" style="endArrow=none;dashed=1;html=1;rounded=0;exitX=1;exitY=1;exitDx=0;exitDy=0;strokeWidth=3;fillColor=#dae8fc;strokeColor=#6c8ebf;fontFamily=Times New Roman;entryX=0.965;entryY=0.01;entryDx=0;entryDy=0;entryPerimeter=0;" edge="1" parent="Y8klcHg_xmhRVvrzgp0a-1558" source="Y8klcHg_xmhRVvrzgp0a-1573" target="Y8klcHg_xmhRVvrzgp0a-1559">
          <mxGeometry width="50" height="50" relative="1" as="geometry">
            <mxPoint x="510" y="-36.29999999999927" as="sourcePoint" />
            <mxPoint x="1100" y="110" as="targetPoint" />
          </mxGeometry>
        </mxCell>
        <mxCell id="Y8klcHg_xmhRVvrzgp0a-1580" value="" style="endArrow=classic;html=1;rounded=0;entryX=0.5;entryY=0;entryDx=0;entryDy=0;fontFamily=Times New Roman;" edge="1" parent="Y8klcHg_xmhRVvrzgp0a-1558">
          <mxGeometry width="50" height="50" relative="1" as="geometry">
            <mxPoint x="4.5" y="186.28000000000065" as="sourcePoint" />
            <mxPoint x="55" y="186.51000000000022" as="targetPoint" />
            <Array as="points" />
          </mxGeometry>
        </mxCell>
        <mxCell id="Y8klcHg_xmhRVvrzgp0a-1581" value="Init Buffer Position" style="rounded=0;whiteSpace=wrap;html=1;strokeColor=#23445d;fontFamily=Times New Roman;fontSize=22;strokeWidth=2;fillColor=#bac8d3;align=center;verticalAlign=middle;opacity=40;fontColor=default;" vertex="1" parent="Y8klcHg_xmhRVvrzgp0a-1558">
          <mxGeometry x="279" y="151.7" width="181" height="70" as="geometry" />
        </mxCell>
        <mxCell id="Y8klcHg_xmhRVvrzgp0a-1582" value="" style="endArrow=none;dashed=1;html=1;rounded=0;fillColor=#e1d5e7;strokeColor=#9673a6;strokeWidth=4;fontFamily=Times New Roman;exitX=0.096;exitY=-0.001;exitDx=0;exitDy=0;exitPerimeter=0;entryX=0;entryY=1;entryDx=0;entryDy=0;" edge="1" parent="1" source="Y8klcHg_xmhRVvrzgp0a-1708" target="Y8klcHg_xmhRVvrzgp0a-1563">
          <mxGeometry width="50" height="50" relative="1" as="geometry">
            <mxPoint x="1144.5" y="4355.360000000001" as="sourcePoint" />
            <mxPoint x="1082.5" y="4287.7" as="targetPoint" />
          </mxGeometry>
        </mxCell>
        <mxCell id="Y8klcHg_xmhRVvrzgp0a-1583" value="" style="endArrow=none;dashed=1;html=1;rounded=0;fillColor=#e1d5e7;strokeColor=#9673a6;strokeWidth=4;fontFamily=Times New Roman;entryX=1;entryY=1;entryDx=0;entryDy=0;exitX=0.91;exitY=0.001;exitDx=0;exitDy=0;exitPerimeter=0;" edge="1" parent="1" target="Y8klcHg_xmhRVvrzgp0a-1563">
          <mxGeometry width="50" height="50" relative="1" as="geometry">
            <mxPoint x="2005.5" y="4350.67" as="sourcePoint" />
            <mxPoint x="1223.5" y="4289.7" as="targetPoint" />
          </mxGeometry>
        </mxCell>
        <mxCell id="Y8klcHg_xmhRVvrzgp0a-1584" value="" style="rounded=0;whiteSpace=wrap;html=1;fillColor=#dae8fc;strokeColor=#6c8ebf;fontSize=18;container=0;" vertex="1" parent="1">
          <mxGeometry x="1100.12" y="4891.7771875" width="61.05527638190955" height="20.578125" as="geometry" />
        </mxCell>
        <mxCell id="Y8klcHg_xmhRVvrzgp0a-1586" value="&lt;font face=&quot;Times New Roman&quot;&gt;&lt;span style=&quot;font-size: 19px;&quot;&gt;&lt;i&gt;FF in Cluster&lt;sub&gt;i&lt;/sub&gt;&lt;/i&gt;&lt;/span&gt;&lt;/font&gt;" style="text;html=1;align=center;verticalAlign=middle;whiteSpace=wrap;rounded=0;flipV=0;" vertex="1" parent="1">
          <mxGeometry x="1170.002512562814" y="4884.82" width="117" height="34.5" as="geometry" />
        </mxCell>
        <mxCell id="Y8klcHg_xmhRVvrzgp0a-1587" value="" style="rounded=0;whiteSpace=wrap;html=1;fillColor=#f8cecc;strokeColor=#b85450;opacity=60;fontSize=18;container=0;" vertex="1" parent="1">
          <mxGeometry x="1345.600703517588" y="4891.77625" width="30.527638190954775" height="20.578125" as="geometry" />
        </mxCell>
        <mxCell id="Y8klcHg_xmhRVvrzgp0a-1588" value="&lt;font face=&quot;Times New Roman&quot;&gt;&lt;span style=&quot;font-size: 19px;&quot;&gt;&lt;i&gt;BUF of&amp;nbsp; Cluster&lt;sub&gt;i&lt;/sub&gt;&lt;/i&gt;&lt;/span&gt;&lt;/font&gt;" style="text;html=1;align=center;verticalAlign=middle;whiteSpace=wrap;rounded=0;flipV=0;" vertex="1" parent="1">
          <mxGeometry x="1379.652512562814" y="4884.82" width="150" height="34.5" as="geometry" />
        </mxCell>
        <mxCell id="Y8klcHg_xmhRVvrzgp0a-1589" value="Node Filter&amp;nbsp;" style="text;html=1;align=center;verticalAlign=middle;whiteSpace=wrap;rounded=0;fontSize=39;fontFamily=Times New Roman;fontStyle=1" vertex="1" parent="1">
          <mxGeometry x="1064.04" y="4415" width="257.13" height="30" as="geometry" />
        </mxCell>
        <mxCell id="Y8klcHg_xmhRVvrzgp0a-1590" value="" style="rounded=0;whiteSpace=wrap;html=1;fillColor=#d5e8d4;strokeColor=#82b366;fontSize=18;container=0;" vertex="1" parent="1">
          <mxGeometry x="1098.4799999999998" y="4857.2771875" width="61.05527638190955" height="20.578125" as="geometry" />
        </mxCell>
        <mxCell id="Y8klcHg_xmhRVvrzgp0a-1591" value="&lt;font face=&quot;Times New Roman&quot;&gt;&lt;span style=&quot;font-size: 19px;&quot;&gt;&lt;i&gt;FF in Cluster&lt;sub&gt;i&amp;nbsp;&amp;nbsp;&lt;/sub&gt;removed&lt;/i&gt;&lt;/span&gt;&lt;/font&gt;" style="text;html=1;align=center;verticalAlign=middle;whiteSpace=wrap;rounded=0;flipV=0;" vertex="1" parent="1">
          <mxGeometry x="1153.56" y="4850.32" width="222.66" height="34.5" as="geometry" />
        </mxCell>
        <mxCell id="Y8klcHg_xmhRVvrzgp0a-1592" value="" style="group" vertex="1" connectable="0" parent="1">
          <mxGeometry x="1672.75" y="4422" width="370" height="225" as="geometry" />
        </mxCell>
        <mxCell id="Y8klcHg_xmhRVvrzgp0a-1593" value="" style="group;fontSize=18;" vertex="1" connectable="0" parent="Y8klcHg_xmhRVvrzgp0a-1592">
          <mxGeometry width="370" height="225" as="geometry" />
        </mxCell>
        <mxCell id="Y8klcHg_xmhRVvrzgp0a-1594" value="" style="endArrow=none;html=1;rounded=0;fontSize=18;startSize=8;endSize=8;curved=1;exitX=0.467;exitY=0.567;exitDx=0;exitDy=0;exitPerimeter=0;" edge="1" parent="Y8klcHg_xmhRVvrzgp0a-1593" source="Y8klcHg_xmhRVvrzgp0a-1607">
          <mxGeometry width="50" height="50" relative="1" as="geometry">
            <mxPoint x="173.67346938775512" y="117.03296703296702" as="sourcePoint" />
            <mxPoint x="148.50340136054422" y="97.25274725274724" as="targetPoint" />
          </mxGeometry>
        </mxCell>
        <mxCell id="Y8klcHg_xmhRVvrzgp0a-1595" value="" style="endArrow=none;html=1;rounded=0;fontSize=18;startSize=8;endSize=8;curved=1;exitX=0.5;exitY=0.5;exitDx=0;exitDy=0;exitPerimeter=0;" edge="1" parent="Y8klcHg_xmhRVvrzgp0a-1593" source="Y8klcHg_xmhRVvrzgp0a-1609">
          <mxGeometry width="50" height="50" relative="1" as="geometry">
            <mxPoint x="108.2312925170068" y="204.39560439560435" as="sourcePoint" />
            <mxPoint x="145.98639455782313" y="100.54945054945054" as="targetPoint" />
          </mxGeometry>
        </mxCell>
        <mxCell id="Y8klcHg_xmhRVvrzgp0a-1596" value="" style="endArrow=none;html=1;rounded=0;fontSize=18;startSize=8;endSize=8;curved=1;exitX=0.5;exitY=0.5;exitDx=0;exitDy=0;exitPerimeter=0;" edge="1" parent="Y8klcHg_xmhRVvrzgp0a-1593" source="Y8klcHg_xmhRVvrzgp0a-1606">
          <mxGeometry width="50" height="50" relative="1" as="geometry">
            <mxPoint x="229.04761904761907" y="166.48351648351647" as="sourcePoint" />
            <mxPoint x="148.50340136054422" y="100.54945054945054" as="targetPoint" />
          </mxGeometry>
        </mxCell>
        <mxCell id="Y8klcHg_xmhRVvrzgp0a-1597" value="" style="endArrow=none;html=1;rounded=0;fontSize=18;startSize=8;endSize=8;curved=1;exitX=0.5;exitY=0.5;exitDx=0;exitDy=0;exitPerimeter=0;" edge="1" parent="Y8klcHg_xmhRVvrzgp0a-1593" source="Y8klcHg_xmhRVvrzgp0a-1603">
          <mxGeometry width="50" height="50" relative="1" as="geometry">
            <mxPoint x="304.55782312925174" y="166.48351648351647" as="sourcePoint" />
            <mxPoint x="148.50340136054422" y="100.54945054945054" as="targetPoint" />
          </mxGeometry>
        </mxCell>
        <mxCell id="Y8klcHg_xmhRVvrzgp0a-1598" value="" style="endArrow=none;html=1;rounded=0;fontSize=18;startSize=8;endSize=8;curved=1;exitX=0.5;exitY=0.567;exitDx=0;exitDy=0;exitPerimeter=0;" edge="1" parent="Y8klcHg_xmhRVvrzgp0a-1593" source="Y8klcHg_xmhRVvrzgp0a-1604">
          <mxGeometry width="50" height="50" relative="1" as="geometry">
            <mxPoint x="304.55782312925174" y="118.68131868131864" as="sourcePoint" />
            <mxPoint x="148.50340136054422" y="100.54945054945054" as="targetPoint" />
          </mxGeometry>
        </mxCell>
        <mxCell id="Y8klcHg_xmhRVvrzgp0a-1599" value="" style="endArrow=none;html=1;rounded=0;fontSize=18;startSize=8;endSize=8;curved=1;exitX=0.533;exitY=0.5;exitDx=0;exitDy=0;exitPerimeter=0;" edge="1" parent="Y8klcHg_xmhRVvrzgp0a-1593" source="Y8klcHg_xmhRVvrzgp0a-1602">
          <mxGeometry width="50" height="50" relative="1" as="geometry">
            <mxPoint x="304.55782312925174" y="93.95604395604396" as="sourcePoint" />
            <mxPoint x="148.50340136054422" y="97.25274725274724" as="targetPoint" />
          </mxGeometry>
        </mxCell>
        <mxCell id="Y8klcHg_xmhRVvrzgp0a-1600" value="" style="rounded=1;whiteSpace=wrap;html=1;fillColor=#bac8d3;fontColor=default;strokeColor=#23445d;strokeWidth=2;fontSize=12;opacity=20;align=center;verticalAlign=middle;fontFamily=Times New Roman;" vertex="1" parent="Y8klcHg_xmhRVvrzgp0a-1593">
          <mxGeometry width="370" height="225" as="geometry" />
        </mxCell>
        <mxCell id="Y8klcHg_xmhRVvrzgp0a-1601" value="" style="rounded=0;whiteSpace=wrap;html=1;fillColor=#dae8fc;strokeColor=#6c8ebf;fontSize=18;" vertex="1" parent="Y8klcHg_xmhRVvrzgp0a-1593">
          <mxGeometry x="47.82312925170068" y="38.73626373626373" width="75.51020408163266" height="24.725274725274723" as="geometry" />
        </mxCell>
        <mxCell id="Y8klcHg_xmhRVvrzgp0a-1602" value="" style="rounded=0;whiteSpace=wrap;html=1;fillColor=#dae8fc;strokeColor=#6c8ebf;fontSize=18;" vertex="1" parent="Y8klcHg_xmhRVvrzgp0a-1593">
          <mxGeometry x="241.6326530612245" y="38.73626373626373" width="75.51020408163266" height="24.725274725274723" as="geometry" />
        </mxCell>
        <mxCell id="Y8klcHg_xmhRVvrzgp0a-1603" value="" style="rounded=0;whiteSpace=wrap;html=1;fillColor=#dae8fc;strokeColor=#6c8ebf;fontSize=18;" vertex="1" parent="Y8klcHg_xmhRVvrzgp0a-1593">
          <mxGeometry x="241.6326530612245" y="112.9120879120879" width="75.51020408163266" height="24.725274725274723" as="geometry" />
        </mxCell>
        <mxCell id="Y8klcHg_xmhRVvrzgp0a-1604" value="" style="rounded=0;whiteSpace=wrap;html=1;fillColor=#dae8fc;strokeColor=#6c8ebf;fontSize=18;" vertex="1" parent="Y8klcHg_xmhRVvrzgp0a-1593">
          <mxGeometry x="241.6326530612245" y="63.461538461538446" width="75.51020408163266" height="24.725274725274723" as="geometry" />
        </mxCell>
        <mxCell id="Y8klcHg_xmhRVvrzgp0a-1605" value="" style="rounded=0;whiteSpace=wrap;html=1;fillColor=#dae8fc;strokeColor=#6c8ebf;fontSize=18;" vertex="1" parent="Y8klcHg_xmhRVvrzgp0a-1593">
          <mxGeometry x="241.6326530612245" y="88.18681318681318" width="75.51020408163266" height="24.725274725274723" as="geometry" />
        </mxCell>
        <mxCell id="Y8klcHg_xmhRVvrzgp0a-1606" value="" style="rounded=0;whiteSpace=wrap;html=1;fillColor=#dae8fc;strokeColor=#6c8ebf;fontSize=18;" vertex="1" parent="Y8klcHg_xmhRVvrzgp0a-1593">
          <mxGeometry x="241.6326530612245" y="137.63736263736263" width="75.51020408163266" height="24.725274725274723" as="geometry" />
        </mxCell>
        <mxCell id="Y8klcHg_xmhRVvrzgp0a-1607" value="" style="rounded=0;whiteSpace=wrap;html=1;fillColor=#dae8fc;strokeColor=#6c8ebf;fontSize=18;" vertex="1" parent="Y8klcHg_xmhRVvrzgp0a-1593">
          <mxGeometry x="47.82312925170068" y="173.90109890109886" width="75.51020408163266" height="24.725274725274723" as="geometry" />
        </mxCell>
        <mxCell id="Y8klcHg_xmhRVvrzgp0a-1608" value="" style="rounded=0;whiteSpace=wrap;html=1;fillColor=#d5e8d4;strokeColor=#82b366;fontSize=18;" vertex="1" parent="Y8klcHg_xmhRVvrzgp0a-1593">
          <mxGeometry x="166.12244897959184" y="112.9120879120879" width="75.51020408163266" height="24.725274725274723" as="geometry" />
        </mxCell>
        <mxCell id="Y8klcHg_xmhRVvrzgp0a-1609" value="" style="rounded=0;whiteSpace=wrap;html=1;fillColor=#dae8fc;strokeColor=#6c8ebf;fontSize=18;" vertex="1" parent="Y8klcHg_xmhRVvrzgp0a-1593">
          <mxGeometry x="166.12244897959184" y="137.63736263736263" width="75.51020408163266" height="24.725274725274723" as="geometry" />
        </mxCell>
        <mxCell id="Y8klcHg_xmhRVvrzgp0a-1610" value="" style="rounded=0;whiteSpace=wrap;html=1;fillColor=#f8cecc;strokeColor=#b85450;fontSize=18;" vertex="1" parent="Y8klcHg_xmhRVvrzgp0a-1593">
          <mxGeometry x="128.3673469387755" y="88.18681318681318" width="37.75510204081633" height="24.725274725274723" as="geometry" />
        </mxCell>
        <mxCell id="Y8klcHg_xmhRVvrzgp0a-1611" value="" style="shape=waypoint;sketch=0;fillStyle=solid;size=6;pointerEvents=1;points=[];fillColor=none;resizable=0;rotatable=0;perimeter=centerPerimeter;snapToPoint=1;fontSize=18;" vertex="1" parent="Y8klcHg_xmhRVvrzgp0a-1593">
          <mxGeometry x="137.2448299319728" y="90.32502497502497" width="20" height="20" as="geometry" />
        </mxCell>
        <mxCell id="Y8klcHg_xmhRVvrzgp0a-1612" value="" style="endArrow=none;html=1;rounded=0;fontSize=18;startSize=8;endSize=8;curved=1;exitX=0.401;exitY=0.833;exitDx=0;exitDy=0;exitPerimeter=0;" edge="1" parent="Y8klcHg_xmhRVvrzgp0a-1593" source="Y8klcHg_xmhRVvrzgp0a-1611">
          <mxGeometry width="50" height="50" relative="1" as="geometry">
            <mxPoint x="30.20408163265306" y="156.59340659340657" as="sourcePoint" />
            <mxPoint x="85.578231292517" y="51.09890109890109" as="targetPoint" />
          </mxGeometry>
        </mxCell>
        <mxCell id="Y8klcHg_xmhRVvrzgp0a-1613" value="" style="endArrow=none;html=1;rounded=0;fontSize=18;startSize=8;endSize=8;curved=1;exitX=0.5;exitY=0.55;exitDx=0;exitDy=0;exitPerimeter=0;" edge="1" parent="Y8klcHg_xmhRVvrzgp0a-1593" source="Y8klcHg_xmhRVvrzgp0a-1605">
          <mxGeometry width="50" height="50" relative="1" as="geometry">
            <mxPoint x="279.38775510204084" y="126.51098901098901" as="sourcePoint" />
            <mxPoint x="148.50340136054422" y="98.90109890109889" as="targetPoint" />
          </mxGeometry>
        </mxCell>
        <mxCell id="Y8klcHg_xmhRVvrzgp0a-1614" value="" style="shape=waypoint;sketch=0;fillStyle=solid;size=6;pointerEvents=1;points=[];fillColor=#0050ef;resizable=0;rotatable=0;perimeter=centerPerimeter;snapToPoint=1;strokeColor=#001DBC;fontColor=#ffffff;fontSize=18;" vertex="1" parent="Y8klcHg_xmhRVvrzgp0a-1593">
          <mxGeometry x="75.57816326530612" y="176.03931068931067" width="20" height="20" as="geometry" />
        </mxCell>
        <mxCell id="Y8klcHg_xmhRVvrzgp0a-1615" value="" style="shape=waypoint;sketch=0;fillStyle=solid;size=6;pointerEvents=1;points=[];fillColor=#0050ef;resizable=0;rotatable=0;perimeter=centerPerimeter;snapToPoint=1;strokeColor=#001DBC;fontColor=#ffffff;fontSize=18;" vertex="1" parent="Y8klcHg_xmhRVvrzgp0a-1593">
          <mxGeometry x="75.57816326530612" y="40.874475524475514" width="20" height="20" as="geometry" />
        </mxCell>
        <mxCell id="Y8klcHg_xmhRVvrzgp0a-1616" value="" style="shape=waypoint;sketch=0;fillStyle=solid;size=6;pointerEvents=1;points=[];fillColor=#0050ef;resizable=0;rotatable=0;perimeter=centerPerimeter;snapToPoint=1;strokeColor=#001DBC;fontColor=#ffffff;fontSize=18;" vertex="1" parent="Y8klcHg_xmhRVvrzgp0a-1593">
          <mxGeometry x="193.87748299319728" y="139.7755744255744" width="20" height="20" as="geometry" />
        </mxCell>
        <mxCell id="Y8klcHg_xmhRVvrzgp0a-1617" value="" style="shape=waypoint;sketch=0;fillStyle=solid;size=6;pointerEvents=1;points=[];fillColor=#0050ef;resizable=0;rotatable=0;perimeter=centerPerimeter;snapToPoint=1;strokeColor=#001DBC;fontColor=#ffffff;fontSize=18;" vertex="1" parent="Y8klcHg_xmhRVvrzgp0a-1593">
          <mxGeometry x="269.38768707482996" y="139.7755744255744" width="20" height="20" as="geometry" />
        </mxCell>
        <mxCell id="Y8klcHg_xmhRVvrzgp0a-1618" value="" style="shape=waypoint;sketch=0;fillStyle=solid;size=6;pointerEvents=1;points=[];fillColor=#0050ef;resizable=0;rotatable=0;perimeter=centerPerimeter;snapToPoint=1;strokeColor=#001DBC;fontColor=#ffffff;fontSize=18;" vertex="1" parent="Y8klcHg_xmhRVvrzgp0a-1593">
          <mxGeometry x="269.38768707482996" y="115.05029970029968" width="20" height="20" as="geometry" />
        </mxCell>
        <mxCell id="Y8klcHg_xmhRVvrzgp0a-1619" value="" style="shape=waypoint;sketch=0;fillStyle=solid;size=6;pointerEvents=1;points=[];fillColor=#0050ef;resizable=0;rotatable=0;perimeter=centerPerimeter;snapToPoint=1;strokeColor=#001DBC;fontColor=#ffffff;fontSize=18;" vertex="1" parent="Y8klcHg_xmhRVvrzgp0a-1593">
          <mxGeometry x="269.38768707482996" y="92.46005244755246" width="20" height="20" as="geometry" />
        </mxCell>
        <mxCell id="Y8klcHg_xmhRVvrzgp0a-1620" value="" style="shape=waypoint;sketch=0;fillStyle=solid;size=6;pointerEvents=1;points=[];fillColor=#0050ef;resizable=0;rotatable=0;perimeter=centerPerimeter;snapToPoint=1;strokeColor=#001DBC;fontColor=#ffffff;fontSize=18;" vertex="1" parent="Y8klcHg_xmhRVvrzgp0a-1593">
          <mxGeometry x="269.38768707482996" y="65.59975024975023" width="20" height="20" as="geometry" />
        </mxCell>
        <mxCell id="Y8klcHg_xmhRVvrzgp0a-1621" value="" style="shape=waypoint;sketch=0;fillStyle=solid;size=6;pointerEvents=1;points=[];fillColor=#0050ef;resizable=0;rotatable=0;perimeter=centerPerimeter;snapToPoint=1;strokeColor=#001DBC;fontColor=#ffffff;fontSize=18;" vertex="1" parent="Y8klcHg_xmhRVvrzgp0a-1593">
          <mxGeometry x="269.38768707482996" y="40.874475524475514" width="20" height="20" as="geometry" />
        </mxCell>
        <mxCell id="Y8klcHg_xmhRVvrzgp0a-1622" value="" style="endArrow=none;html=1;rounded=0;fontSize=18;startSize=8;endSize=8;curved=1;" edge="1" parent="Y8klcHg_xmhRVvrzgp0a-1593" source="Y8klcHg_xmhRVvrzgp0a-1614" target="Y8klcHg_xmhRVvrzgp0a-1611">
          <mxGeometry width="50" height="50" relative="1" as="geometry">
            <mxPoint x="289" y="112.5" as="sourcePoint" />
            <mxPoint x="158.5034013605441" y="109.1283716283714" as="targetPoint" />
          </mxGeometry>
        </mxCell>
        <mxCell id="Y8klcHg_xmhRVvrzgp0a-1623" value="" style="endArrow=none;html=1;rounded=0;fontSize=18;startSize=8;endSize=8;curved=1;" edge="1" parent="Y8klcHg_xmhRVvrzgp0a-1593" source="Y8klcHg_xmhRVvrzgp0a-1621" target="Y8klcHg_xmhRVvrzgp0a-1611">
          <mxGeometry width="50" height="50" relative="1" as="geometry">
            <mxPoint x="289" y="85.9090909090909" as="sourcePoint" />
            <mxPoint x="160" y="112.5" as="targetPoint" />
          </mxGeometry>
        </mxCell>
        <mxCell id="Y8klcHg_xmhRVvrzgp0a-1624" value="" style="endArrow=none;html=1;rounded=0;fontSize=18;startSize=8;endSize=8;curved=1;exitX=0.334;exitY=0.475;exitDx=0;exitDy=0;exitPerimeter=0;" edge="1" parent="Y8klcHg_xmhRVvrzgp0a-1592" source="Y8klcHg_xmhRVvrzgp0a-1616">
          <mxGeometry width="50" height="50" relative="1" as="geometry">
            <mxPoint x="299" y="122.72727272727272" as="sourcePoint" />
            <mxPoint x="150" y="102.27272727272727" as="targetPoint" />
          </mxGeometry>
        </mxCell>
        <mxCell id="Y8klcHg_xmhRVvrzgp0a-1625" value="" style="endArrow=none;html=1;rounded=0;fontSize=18;startSize=8;endSize=8;curved=1;" edge="1" parent="Y8klcHg_xmhRVvrzgp0a-1592" source="Y8klcHg_xmhRVvrzgp0a-1618">
          <mxGeometry width="50" height="50" relative="1" as="geometry">
            <mxPoint x="214" y="160.5681818181818" as="sourcePoint" />
            <mxPoint x="150" y="102.27272727272727" as="targetPoint" />
          </mxGeometry>
        </mxCell>
        <mxCell id="Y8klcHg_xmhRVvrzgp0a-1626" value="" style="endArrow=none;html=1;rounded=0;fontSize=18;startSize=8;endSize=8;curved=1;exitX=0.638;exitY=0.367;exitDx=0;exitDy=0;exitPerimeter=0;" edge="1" parent="Y8klcHg_xmhRVvrzgp0a-1592" source="Y8klcHg_xmhRVvrzgp0a-1617">
          <mxGeometry width="50" height="50" relative="1" as="geometry">
            <mxPoint x="289" y="135" as="sourcePoint" />
            <mxPoint x="150" y="102.27272727272727" as="targetPoint" />
          </mxGeometry>
        </mxCell>
        <mxCell id="Y8klcHg_xmhRVvrzgp0a-1627" value="" style="endArrow=none;html=1;rounded=0;fontSize=18;startSize=8;endSize=8;curved=1;exitX=0.671;exitY=0.538;exitDx=0;exitDy=0;exitPerimeter=0;" edge="1" parent="Y8klcHg_xmhRVvrzgp0a-1592" source="Y8klcHg_xmhRVvrzgp0a-1620">
          <mxGeometry width="50" height="50" relative="1" as="geometry">
            <mxPoint x="289" y="160.5681818181818" as="sourcePoint" />
            <mxPoint x="150" y="102.27272727272727" as="targetPoint" />
          </mxGeometry>
        </mxCell>
        <mxCell id="Y8klcHg_xmhRVvrzgp0a-1628" value="" style="group" vertex="1" connectable="0" parent="1">
          <mxGeometry x="1110" y="4510" width="440" height="280" as="geometry" />
        </mxCell>
        <mxCell id="Y8klcHg_xmhRVvrzgp0a-1629" value="" style="group;fontSize=18;" vertex="1" connectable="0" parent="Y8klcHg_xmhRVvrzgp0a-1628">
          <mxGeometry width="439.99999999999994" height="280" as="geometry" />
        </mxCell>
        <mxCell id="Y8klcHg_xmhRVvrzgp0a-1630" value="" style="endArrow=none;html=1;rounded=0;fontSize=18;startSize=8;endSize=8;curved=1;exitX=0.467;exitY=0.567;exitDx=0;exitDy=0;exitPerimeter=0;" edge="1" parent="Y8klcHg_xmhRVvrzgp0a-1629" source="Y8klcHg_xmhRVvrzgp0a-1643">
          <mxGeometry width="50" height="50" relative="1" as="geometry">
            <mxPoint x="206.53061224489798" y="145.64102564102564" as="sourcePoint" />
            <mxPoint x="176.5986394557823" y="121.02564102564102" as="targetPoint" />
          </mxGeometry>
        </mxCell>
        <mxCell id="Y8klcHg_xmhRVvrzgp0a-1631" value="" style="endArrow=none;html=1;rounded=0;fontSize=18;startSize=8;endSize=8;curved=1;exitX=0.5;exitY=0.5;exitDx=0;exitDy=0;exitPerimeter=0;" edge="1" parent="Y8klcHg_xmhRVvrzgp0a-1629" source="Y8klcHg_xmhRVvrzgp0a-1645">
          <mxGeometry width="50" height="50" relative="1" as="geometry">
            <mxPoint x="128.7074829931973" y="254.35897435897434" as="sourcePoint" />
            <mxPoint x="173.60544217687075" y="125.12820512820512" as="targetPoint" />
          </mxGeometry>
        </mxCell>
        <mxCell id="Y8klcHg_xmhRVvrzgp0a-1632" value="" style="endArrow=none;html=1;rounded=0;fontSize=18;startSize=8;endSize=8;curved=1;exitX=0.5;exitY=0.5;exitDx=0;exitDy=0;exitPerimeter=0;" edge="1" parent="Y8klcHg_xmhRVvrzgp0a-1629" source="Y8klcHg_xmhRVvrzgp0a-1642">
          <mxGeometry width="50" height="50" relative="1" as="geometry">
            <mxPoint x="272.3809523809524" y="207.17948717948715" as="sourcePoint" />
            <mxPoint x="176.5986394557823" y="125.12820512820512" as="targetPoint" />
          </mxGeometry>
        </mxCell>
        <mxCell id="Y8klcHg_xmhRVvrzgp0a-1633" value="" style="endArrow=none;html=1;rounded=0;fontSize=18;startSize=8;endSize=8;curved=1;exitX=0.5;exitY=0.5;exitDx=0;exitDy=0;exitPerimeter=0;" edge="1" parent="Y8klcHg_xmhRVvrzgp0a-1629" source="Y8klcHg_xmhRVvrzgp0a-1639">
          <mxGeometry width="50" height="50" relative="1" as="geometry">
            <mxPoint x="362.17687074829934" y="207.17948717948715" as="sourcePoint" />
            <mxPoint x="176.5986394557823" y="125.12820512820512" as="targetPoint" />
          </mxGeometry>
        </mxCell>
        <mxCell id="Y8klcHg_xmhRVvrzgp0a-1634" value="" style="endArrow=none;html=1;rounded=0;fontSize=18;startSize=8;endSize=8;curved=1;exitX=0.5;exitY=0.567;exitDx=0;exitDy=0;exitPerimeter=0;" edge="1" parent="Y8klcHg_xmhRVvrzgp0a-1629" source="Y8klcHg_xmhRVvrzgp0a-1640">
          <mxGeometry width="50" height="50" relative="1" as="geometry">
            <mxPoint x="362.17687074829934" y="147.69230769230765" as="sourcePoint" />
            <mxPoint x="176.5986394557823" y="125.12820512820512" as="targetPoint" />
          </mxGeometry>
        </mxCell>
        <mxCell id="Y8klcHg_xmhRVvrzgp0a-1635" value="" style="endArrow=none;html=1;rounded=0;fontSize=18;startSize=8;endSize=8;curved=1;exitX=0.533;exitY=0.5;exitDx=0;exitDy=0;exitPerimeter=0;" edge="1" parent="Y8klcHg_xmhRVvrzgp0a-1629" source="Y8klcHg_xmhRVvrzgp0a-1638">
          <mxGeometry width="50" height="50" relative="1" as="geometry">
            <mxPoint x="362.17687074829934" y="116.92307692307693" as="sourcePoint" />
            <mxPoint x="176.5986394557823" y="121.02564102564102" as="targetPoint" />
          </mxGeometry>
        </mxCell>
        <mxCell id="Y8klcHg_xmhRVvrzgp0a-1636" value="" style="rounded=1;whiteSpace=wrap;html=1;fillColor=#bac8d3;fontColor=default;strokeColor=#23445d;strokeWidth=2;fontSize=12;opacity=20;align=center;verticalAlign=middle;fontFamily=Times New Roman;" vertex="1" parent="Y8klcHg_xmhRVvrzgp0a-1629">
          <mxGeometry width="439.99999999999994" height="280" as="geometry" />
        </mxCell>
        <mxCell id="Y8klcHg_xmhRVvrzgp0a-1637" value="" style="rounded=0;whiteSpace=wrap;html=1;fillColor=#dae8fc;strokeColor=#6c8ebf;fontSize=18;" vertex="1" parent="Y8klcHg_xmhRVvrzgp0a-1629">
          <mxGeometry x="56.87074829931972" y="48.2051282051282" width="89.79591836734696" height="30.76923076923077" as="geometry" />
        </mxCell>
        <mxCell id="Y8klcHg_xmhRVvrzgp0a-1638" value="" style="rounded=0;whiteSpace=wrap;html=1;fillColor=#dae8fc;strokeColor=#6c8ebf;fontSize=18;" vertex="1" parent="Y8klcHg_xmhRVvrzgp0a-1629">
          <mxGeometry x="287.3469387755102" y="48.2051282051282" width="89.79591836734696" height="30.76923076923077" as="geometry" />
        </mxCell>
        <mxCell id="Y8klcHg_xmhRVvrzgp0a-1639" value="" style="rounded=0;whiteSpace=wrap;html=1;fillColor=#dae8fc;strokeColor=#6c8ebf;fontSize=18;" vertex="1" parent="Y8klcHg_xmhRVvrzgp0a-1629">
          <mxGeometry x="287.3469387755102" y="140.51282051282053" width="89.79591836734696" height="30.76923076923077" as="geometry" />
        </mxCell>
        <mxCell id="Y8klcHg_xmhRVvrzgp0a-1640" value="" style="rounded=0;whiteSpace=wrap;html=1;fillColor=#dae8fc;strokeColor=#6c8ebf;fontSize=18;" vertex="1" parent="Y8klcHg_xmhRVvrzgp0a-1629">
          <mxGeometry x="287.3469387755102" y="78.97435897435895" width="89.79591836734696" height="30.76923076923077" as="geometry" />
        </mxCell>
        <mxCell id="Y8klcHg_xmhRVvrzgp0a-1641" value="" style="rounded=0;whiteSpace=wrap;html=1;fillColor=#dae8fc;strokeColor=#6c8ebf;fontSize=18;" vertex="1" parent="Y8klcHg_xmhRVvrzgp0a-1629">
          <mxGeometry x="287.3469387755102" y="109.74358974358974" width="89.79591836734696" height="30.76923076923077" as="geometry" />
        </mxCell>
        <mxCell id="Y8klcHg_xmhRVvrzgp0a-1642" value="" style="rounded=0;whiteSpace=wrap;html=1;fillColor=#dae8fc;strokeColor=#6c8ebf;fontSize=18;" vertex="1" parent="Y8klcHg_xmhRVvrzgp0a-1629">
          <mxGeometry x="287.3469387755102" y="171.28205128205127" width="89.79591836734696" height="30.76923076923077" as="geometry" />
        </mxCell>
        <mxCell id="Y8klcHg_xmhRVvrzgp0a-1643" value="" style="rounded=0;whiteSpace=wrap;html=1;fillColor=#dae8fc;strokeColor=#6c8ebf;fontSize=18;" vertex="1" parent="Y8klcHg_xmhRVvrzgp0a-1629">
          <mxGeometry x="56.87074829931972" y="216.41025641025638" width="89.79591836734696" height="30.76923076923077" as="geometry" />
        </mxCell>
        <mxCell id="Y8klcHg_xmhRVvrzgp0a-1644" value="" style="rounded=0;whiteSpace=wrap;html=1;fillColor=#dae8fc;strokeColor=#6c8ebf;fontSize=18;" vertex="1" parent="Y8klcHg_xmhRVvrzgp0a-1629">
          <mxGeometry x="197.55102040816325" y="140.51282051282053" width="89.79591836734696" height="30.76923076923077" as="geometry" />
        </mxCell>
        <mxCell id="Y8klcHg_xmhRVvrzgp0a-1645" value="" style="rounded=0;whiteSpace=wrap;html=1;fillColor=#dae8fc;strokeColor=#6c8ebf;fontSize=18;" vertex="1" parent="Y8klcHg_xmhRVvrzgp0a-1629">
          <mxGeometry x="197.55102040816325" y="171.28205128205127" width="89.79591836734696" height="30.76923076923077" as="geometry" />
        </mxCell>
        <mxCell id="Y8klcHg_xmhRVvrzgp0a-1646" value="" style="rounded=0;whiteSpace=wrap;html=1;fillColor=#f8cecc;strokeColor=#b85450;fontSize=18;" vertex="1" parent="Y8klcHg_xmhRVvrzgp0a-1629">
          <mxGeometry x="152.6530612244898" y="109.74358974358974" width="44.89795918367348" height="30.76923076923077" as="geometry" />
        </mxCell>
        <mxCell id="Y8klcHg_xmhRVvrzgp0a-1647" value="" style="shape=waypoint;sketch=0;fillStyle=solid;size=6;pointerEvents=1;points=[];fillColor=none;resizable=0;rotatable=0;perimeter=centerPerimeter;snapToPoint=1;fontSize=18;" vertex="1" parent="Y8klcHg_xmhRVvrzgp0a-1629">
          <mxGeometry x="163.2100680272109" y="112.40447552447552" width="20" height="20" as="geometry" />
        </mxCell>
        <mxCell id="Y8klcHg_xmhRVvrzgp0a-1648" value="" style="endArrow=none;html=1;rounded=0;fontSize=18;startSize=8;endSize=8;curved=1;exitX=0.401;exitY=0.833;exitDx=0;exitDy=0;exitPerimeter=0;" edge="1" parent="Y8klcHg_xmhRVvrzgp0a-1629" source="Y8klcHg_xmhRVvrzgp0a-1647">
          <mxGeometry width="50" height="50" relative="1" as="geometry">
            <mxPoint x="35.91836734693877" y="194.87179487179483" as="sourcePoint" />
            <mxPoint x="101.76870748299318" y="63.589743589743584" as="targetPoint" />
          </mxGeometry>
        </mxCell>
        <mxCell id="Y8klcHg_xmhRVvrzgp0a-1649" value="" style="endArrow=none;html=1;rounded=0;fontSize=18;startSize=8;endSize=8;curved=1;" edge="1" parent="Y8klcHg_xmhRVvrzgp0a-1629" source="Y8klcHg_xmhRVvrzgp0a-1659">
          <mxGeometry width="50" height="50" relative="1" as="geometry">
            <mxPoint x="242.44897959183672" y="157.9487179487179" as="sourcePoint" />
            <mxPoint x="173.60544217687075" y="126.66666666666664" as="targetPoint" />
          </mxGeometry>
        </mxCell>
        <mxCell id="Y8klcHg_xmhRVvrzgp0a-1650" value="" style="endArrow=none;html=1;rounded=0;fontSize=18;startSize=8;endSize=8;curved=1;exitX=0.5;exitY=0.55;exitDx=0;exitDy=0;exitPerimeter=0;" edge="1" parent="Y8klcHg_xmhRVvrzgp0a-1629" source="Y8klcHg_xmhRVvrzgp0a-1641">
          <mxGeometry width="50" height="50" relative="1" as="geometry">
            <mxPoint x="332.2448979591837" y="157.43589743589743" as="sourcePoint" />
            <mxPoint x="176.5986394557823" y="123.07692307692308" as="targetPoint" />
          </mxGeometry>
        </mxCell>
        <mxCell id="Y8klcHg_xmhRVvrzgp0a-1651" value="" style="shape=waypoint;sketch=0;fillStyle=solid;size=6;pointerEvents=1;points=[];fillColor=#0050ef;resizable=0;rotatable=0;perimeter=centerPerimeter;snapToPoint=1;strokeColor=#001DBC;fontColor=#ffffff;fontSize=18;" vertex="1" parent="Y8klcHg_xmhRVvrzgp0a-1629">
          <mxGeometry x="89.87673469387755" y="219.07114219114217" width="20" height="20" as="geometry" />
        </mxCell>
        <mxCell id="Y8klcHg_xmhRVvrzgp0a-1652" value="" style="shape=waypoint;sketch=0;fillStyle=solid;size=6;pointerEvents=1;points=[];fillColor=#0050ef;resizable=0;rotatable=0;perimeter=centerPerimeter;snapToPoint=1;strokeColor=#001DBC;fontColor=#ffffff;fontSize=18;" vertex="1" parent="Y8klcHg_xmhRVvrzgp0a-1629">
          <mxGeometry x="89.87673469387755" y="50.866013986013975" width="20" height="20" as="geometry" />
        </mxCell>
        <mxCell id="Y8klcHg_xmhRVvrzgp0a-1653" value="" style="shape=waypoint;sketch=0;fillStyle=solid;size=6;pointerEvents=1;points=[];fillColor=#0050ef;resizable=0;rotatable=0;perimeter=centerPerimeter;snapToPoint=1;strokeColor=#001DBC;fontColor=#ffffff;fontSize=18;" vertex="1" parent="Y8klcHg_xmhRVvrzgp0a-1629">
          <mxGeometry x="230.55700680272108" y="173.94293706293706" width="20" height="20" as="geometry" />
        </mxCell>
        <mxCell id="Y8klcHg_xmhRVvrzgp0a-1654" value="" style="shape=waypoint;sketch=0;fillStyle=solid;size=6;pointerEvents=1;points=[];fillColor=#0050ef;resizable=0;rotatable=0;perimeter=centerPerimeter;snapToPoint=1;strokeColor=#001DBC;fontColor=#ffffff;fontSize=18;" vertex="1" parent="Y8klcHg_xmhRVvrzgp0a-1629">
          <mxGeometry x="320.35292517006803" y="173.94293706293706" width="20" height="20" as="geometry" />
        </mxCell>
        <mxCell id="Y8klcHg_xmhRVvrzgp0a-1655" value="" style="shape=waypoint;sketch=0;fillStyle=solid;size=6;pointerEvents=1;points=[];fillColor=#0050ef;resizable=0;rotatable=0;perimeter=centerPerimeter;snapToPoint=1;strokeColor=#001DBC;fontColor=#ffffff;fontSize=18;" vertex="1" parent="Y8klcHg_xmhRVvrzgp0a-1629">
          <mxGeometry x="320.35292517006803" y="143.1737062937063" width="20" height="20" as="geometry" />
        </mxCell>
        <mxCell id="Y8klcHg_xmhRVvrzgp0a-1656" value="" style="shape=waypoint;sketch=0;fillStyle=solid;size=6;pointerEvents=1;points=[];fillColor=#0050ef;resizable=0;rotatable=0;perimeter=centerPerimeter;snapToPoint=1;strokeColor=#001DBC;fontColor=#ffffff;fontSize=18;" vertex="1" parent="Y8klcHg_xmhRVvrzgp0a-1629">
          <mxGeometry x="320.35292517006803" y="115.06139860139861" width="20" height="20" as="geometry" />
        </mxCell>
        <mxCell id="Y8klcHg_xmhRVvrzgp0a-1657" value="" style="shape=waypoint;sketch=0;fillStyle=solid;size=6;pointerEvents=1;points=[];fillColor=#0050ef;resizable=0;rotatable=0;perimeter=centerPerimeter;snapToPoint=1;strokeColor=#001DBC;fontColor=#ffffff;fontSize=18;" vertex="1" parent="Y8klcHg_xmhRVvrzgp0a-1629">
          <mxGeometry x="320.35292517006803" y="81.63524475524474" width="20" height="20" as="geometry" />
        </mxCell>
        <mxCell id="Y8klcHg_xmhRVvrzgp0a-1658" value="" style="shape=waypoint;sketch=0;fillStyle=solid;size=6;pointerEvents=1;points=[];fillColor=#0050ef;resizable=0;rotatable=0;perimeter=centerPerimeter;snapToPoint=1;strokeColor=#001DBC;fontColor=#ffffff;fontSize=18;" vertex="1" parent="Y8klcHg_xmhRVvrzgp0a-1629">
          <mxGeometry x="320.35292517006803" y="50.866013986013975" width="20" height="20" as="geometry" />
        </mxCell>
        <mxCell id="Y8klcHg_xmhRVvrzgp0a-1659" value="" style="shape=waypoint;sketch=0;fillStyle=solid;size=6;pointerEvents=1;points=[];fillColor=#0050ef;resizable=0;rotatable=0;perimeter=centerPerimeter;snapToPoint=1;strokeColor=#001DBC;fontColor=#ffffff;fontSize=18;" vertex="1" parent="Y8klcHg_xmhRVvrzgp0a-1629">
          <mxGeometry x="230.55700680272108" y="143.8219114219114" width="20" height="20" as="geometry" />
        </mxCell>
        <mxCell id="Y8klcHg_xmhRVvrzgp0a-1660" value="" style="endArrow=none;html=1;rounded=0;fontSize=18;startSize=8;endSize=8;curved=1;" edge="1" parent="Y8klcHg_xmhRVvrzgp0a-1629" source="Y8klcHg_xmhRVvrzgp0a-1651" target="Y8klcHg_xmhRVvrzgp0a-1647">
          <mxGeometry width="50" height="50" relative="1" as="geometry">
            <mxPoint x="343.6756756756757" y="140" as="sourcePoint" />
            <mxPoint x="188.49053134767408" y="135.8041958041955" as="targetPoint" />
          </mxGeometry>
        </mxCell>
        <mxCell id="Y8klcHg_xmhRVvrzgp0a-1661" value="" style="endArrow=none;html=1;rounded=0;fontSize=18;startSize=8;endSize=8;curved=1;" edge="1" parent="Y8klcHg_xmhRVvrzgp0a-1629" source="Y8klcHg_xmhRVvrzgp0a-1658" target="Y8klcHg_xmhRVvrzgp0a-1647">
          <mxGeometry width="50" height="50" relative="1" as="geometry">
            <mxPoint x="343.6756756756757" y="106.9090909090909" as="sourcePoint" />
            <mxPoint x="190.27027027027026" y="140" as="targetPoint" />
          </mxGeometry>
        </mxCell>
        <mxCell id="Y8klcHg_xmhRVvrzgp0a-1662" value="" style="endArrow=none;html=1;rounded=0;fontSize=18;startSize=8;endSize=8;curved=1;exitX=0.334;exitY=0.475;exitDx=0;exitDy=0;exitPerimeter=0;" edge="1" parent="Y8klcHg_xmhRVvrzgp0a-1628" source="Y8klcHg_xmhRVvrzgp0a-1653">
          <mxGeometry width="50" height="50" relative="1" as="geometry">
            <mxPoint x="355.56756756756755" y="152.72727272727272" as="sourcePoint" />
            <mxPoint x="178.3783783783784" y="127.27272727272727" as="targetPoint" />
          </mxGeometry>
        </mxCell>
        <mxCell id="Y8klcHg_xmhRVvrzgp0a-1663" value="" style="endArrow=none;html=1;rounded=0;fontSize=18;startSize=8;endSize=8;curved=1;" edge="1" parent="Y8klcHg_xmhRVvrzgp0a-1628" source="Y8klcHg_xmhRVvrzgp0a-1655">
          <mxGeometry width="50" height="50" relative="1" as="geometry">
            <mxPoint x="254.48648648648648" y="199.8181818181818" as="sourcePoint" />
            <mxPoint x="178.3783783783784" y="127.27272727272727" as="targetPoint" />
          </mxGeometry>
        </mxCell>
        <mxCell id="Y8klcHg_xmhRVvrzgp0a-1664" value="" style="endArrow=none;html=1;rounded=0;fontSize=18;startSize=8;endSize=8;curved=1;exitX=0.638;exitY=0.367;exitDx=0;exitDy=0;exitPerimeter=0;" edge="1" parent="Y8klcHg_xmhRVvrzgp0a-1628" source="Y8klcHg_xmhRVvrzgp0a-1654">
          <mxGeometry width="50" height="50" relative="1" as="geometry">
            <mxPoint x="343.6756756756757" y="168" as="sourcePoint" />
            <mxPoint x="178.3783783783784" y="127.27272727272727" as="targetPoint" />
          </mxGeometry>
        </mxCell>
        <mxCell id="Y8klcHg_xmhRVvrzgp0a-1665" value="" style="endArrow=none;html=1;rounded=0;fontSize=18;startSize=8;endSize=8;curved=1;exitX=0.671;exitY=0.538;exitDx=0;exitDy=0;exitPerimeter=0;" edge="1" parent="Y8klcHg_xmhRVvrzgp0a-1628" source="Y8klcHg_xmhRVvrzgp0a-1657">
          <mxGeometry width="50" height="50" relative="1" as="geometry">
            <mxPoint x="343.6756756756757" y="199.8181818181818" as="sourcePoint" />
            <mxPoint x="178.3783783783784" y="127.27272727272727" as="targetPoint" />
          </mxGeometry>
        </mxCell>
        <mxCell id="Y8klcHg_xmhRVvrzgp0a-1666" value="" style="group" vertex="1" connectable="0" parent="1">
          <mxGeometry x="1668" y="4737" width="392.5" height="240" as="geometry" />
        </mxCell>
        <mxCell id="Y8klcHg_xmhRVvrzgp0a-1667" value="" style="endArrow=none;html=1;rounded=0;fontSize=18;startSize=8;endSize=8;curved=1;exitX=0.334;exitY=0.475;exitDx=0;exitDy=0;exitPerimeter=0;" edge="1" parent="Y8klcHg_xmhRVvrzgp0a-1666" source="Y8klcHg_xmhRVvrzgp0a-1692">
          <mxGeometry width="50" height="50" relative="1" as="geometry">
            <mxPoint x="299" y="120" as="sourcePoint" />
            <mxPoint x="150" y="100" as="targetPoint" />
          </mxGeometry>
        </mxCell>
        <mxCell id="Y8klcHg_xmhRVvrzgp0a-1668" value="" style="endArrow=none;html=1;rounded=0;fontSize=18;startSize=8;endSize=8;curved=1;" edge="1" parent="Y8klcHg_xmhRVvrzgp0a-1666" source="Y8klcHg_xmhRVvrzgp0a-1694">
          <mxGeometry width="50" height="50" relative="1" as="geometry">
            <mxPoint x="214" y="157" as="sourcePoint" />
            <mxPoint x="150" y="100" as="targetPoint" />
          </mxGeometry>
        </mxCell>
        <mxCell id="Y8klcHg_xmhRVvrzgp0a-1669" value="" style="endArrow=none;html=1;rounded=0;fontSize=18;startSize=8;endSize=8;curved=1;exitX=0.638;exitY=0.367;exitDx=0;exitDy=0;exitPerimeter=0;" edge="1" parent="Y8klcHg_xmhRVvrzgp0a-1666" source="Y8klcHg_xmhRVvrzgp0a-1693">
          <mxGeometry width="50" height="50" relative="1" as="geometry">
            <mxPoint x="289" y="132" as="sourcePoint" />
            <mxPoint x="150" y="100" as="targetPoint" />
          </mxGeometry>
        </mxCell>
        <mxCell id="Y8klcHg_xmhRVvrzgp0a-1670" value="" style="endArrow=none;html=1;rounded=0;fontSize=18;startSize=8;endSize=8;curved=1;exitX=0.671;exitY=0.538;exitDx=0;exitDy=0;exitPerimeter=0;" edge="1" parent="Y8klcHg_xmhRVvrzgp0a-1666" source="Y8klcHg_xmhRVvrzgp0a-1696">
          <mxGeometry width="50" height="50" relative="1" as="geometry">
            <mxPoint x="289" y="157" as="sourcePoint" />
            <mxPoint x="150" y="100" as="targetPoint" />
          </mxGeometry>
        </mxCell>
        <mxCell id="Y8klcHg_xmhRVvrzgp0a-1671" value="" style="endArrow=none;html=1;rounded=0;fontSize=18;startSize=8;endSize=8;curved=1;exitX=0.5;exitY=0.5;exitDx=0;exitDy=0;exitPerimeter=0;" edge="1" parent="Y8klcHg_xmhRVvrzgp0a-1666" source="Y8klcHg_xmhRVvrzgp0a-1685">
          <mxGeometry width="50" height="50" relative="1" as="geometry">
            <mxPoint x="108.23129251700675" y="199.85347985348017" as="sourcePoint" />
            <mxPoint x="145.98639455782313" y="98.31501831501828" as="targetPoint" />
          </mxGeometry>
        </mxCell>
        <mxCell id="Y8klcHg_xmhRVvrzgp0a-1672" value="" style="endArrow=none;html=1;rounded=0;fontSize=18;startSize=8;endSize=8;curved=1;exitX=0.5;exitY=0.5;exitDx=0;exitDy=0;exitPerimeter=0;" edge="1" parent="Y8klcHg_xmhRVvrzgp0a-1666" source="Y8klcHg_xmhRVvrzgp0a-1682">
          <mxGeometry width="50" height="50" relative="1" as="geometry">
            <mxPoint x="229.04761904761904" y="162.7838827838832" as="sourcePoint" />
            <mxPoint x="148.5034013605441" y="98.31501831501828" as="targetPoint" />
          </mxGeometry>
        </mxCell>
        <mxCell id="Y8klcHg_xmhRVvrzgp0a-1673" value="" style="endArrow=none;html=1;rounded=0;fontSize=18;startSize=8;endSize=8;curved=1;exitX=0.5;exitY=0.5;exitDx=0;exitDy=0;exitPerimeter=0;" edge="1" parent="Y8klcHg_xmhRVvrzgp0a-1666" source="Y8klcHg_xmhRVvrzgp0a-1679">
          <mxGeometry width="50" height="50" relative="1" as="geometry">
            <mxPoint x="304.5578231292518" y="162.7838827838832" as="sourcePoint" />
            <mxPoint x="148.5034013605441" y="98.31501831501828" as="targetPoint" />
          </mxGeometry>
        </mxCell>
        <mxCell id="Y8klcHg_xmhRVvrzgp0a-1674" value="" style="endArrow=none;html=1;rounded=0;fontSize=18;startSize=8;endSize=8;curved=1;exitX=0.5;exitY=0.567;exitDx=0;exitDy=0;exitPerimeter=0;" edge="1" parent="Y8klcHg_xmhRVvrzgp0a-1666" source="Y8klcHg_xmhRVvrzgp0a-1680">
          <mxGeometry width="50" height="50" relative="1" as="geometry">
            <mxPoint x="304.5578231292518" y="116.04395604395631" as="sourcePoint" />
            <mxPoint x="148.5034013605441" y="98.31501831501828" as="targetPoint" />
          </mxGeometry>
        </mxCell>
        <mxCell id="Y8klcHg_xmhRVvrzgp0a-1675" value="" style="endArrow=none;html=1;rounded=0;fontSize=18;startSize=8;endSize=8;curved=1;exitX=0.533;exitY=0.5;exitDx=0;exitDy=0;exitPerimeter=0;" edge="1" parent="Y8klcHg_xmhRVvrzgp0a-1666" source="Y8klcHg_xmhRVvrzgp0a-1678">
          <mxGeometry width="50" height="50" relative="1" as="geometry">
            <mxPoint x="304.5578231292518" y="91.86813186813197" as="sourcePoint" />
            <mxPoint x="148.5034013605441" y="95.09157509157467" as="targetPoint" />
          </mxGeometry>
        </mxCell>
        <mxCell id="Y8klcHg_xmhRVvrzgp0a-1676" value="" style="rounded=1;whiteSpace=wrap;html=1;fillColor=#bac8d3;fontColor=default;strokeColor=#23445d;strokeWidth=2;fontSize=12;opacity=20;align=center;verticalAlign=middle;fontFamily=Times New Roman;container=0;" vertex="1" parent="Y8klcHg_xmhRVvrzgp0a-1666">
          <mxGeometry width="370" height="220" as="geometry" />
        </mxCell>
        <mxCell id="Y8klcHg_xmhRVvrzgp0a-1677" value="" style="rounded=0;whiteSpace=wrap;html=1;fillColor=#dae8fc;strokeColor=#6c8ebf;fontSize=18;container=0;" vertex="1" parent="Y8klcHg_xmhRVvrzgp0a-1666">
          <mxGeometry x="47.82312925170072" y="37.87545787545787" width="75.51020408163266" height="24.175824175824175" as="geometry" />
        </mxCell>
        <mxCell id="Y8klcHg_xmhRVvrzgp0a-1678" value="" style="rounded=0;whiteSpace=wrap;html=1;fillColor=#dae8fc;strokeColor=#6c8ebf;fontSize=18;container=0;" vertex="1" parent="Y8klcHg_xmhRVvrzgp0a-1666">
          <mxGeometry x="241.63265306122457" y="37.87545787545787" width="75.51020408163266" height="24.175824175824175" as="geometry" />
        </mxCell>
        <mxCell id="Y8klcHg_xmhRVvrzgp0a-1679" value="" style="rounded=0;whiteSpace=wrap;html=1;fillColor=#dae8fc;strokeColor=#6c8ebf;fontSize=18;container=0;" vertex="1" parent="Y8klcHg_xmhRVvrzgp0a-1666">
          <mxGeometry x="241.63265306122457" y="110.40293040293" width="75.51020408163266" height="24.175824175824175" as="geometry" />
        </mxCell>
        <mxCell id="Y8klcHg_xmhRVvrzgp0a-1680" value="" style="rounded=0;whiteSpace=wrap;html=1;fillColor=#dae8fc;strokeColor=#6c8ebf;fontSize=18;container=0;" vertex="1" parent="Y8klcHg_xmhRVvrzgp0a-1666">
          <mxGeometry x="241.63265306122457" y="62.051282051282215" width="75.51020408163266" height="24.175824175824175" as="geometry" />
        </mxCell>
        <mxCell id="Y8klcHg_xmhRVvrzgp0a-1681" value="" style="rounded=0;whiteSpace=wrap;html=1;fillColor=#dae8fc;strokeColor=#6c8ebf;fontSize=18;container=0;" vertex="1" parent="Y8klcHg_xmhRVvrzgp0a-1666">
          <mxGeometry x="241.63265306122457" y="86.22710622710656" width="75.51020408163266" height="24.175824175824175" as="geometry" />
        </mxCell>
        <mxCell id="Y8klcHg_xmhRVvrzgp0a-1682" value="" style="rounded=0;whiteSpace=wrap;html=1;fillColor=#dae8fc;strokeColor=#6c8ebf;fontSize=18;container=0;" vertex="1" parent="Y8klcHg_xmhRVvrzgp0a-1666">
          <mxGeometry x="241.63265306122457" y="134.57875457875434" width="75.51020408163266" height="24.175824175824175" as="geometry" />
        </mxCell>
        <mxCell id="Y8klcHg_xmhRVvrzgp0a-1683" value="" style="rounded=0;whiteSpace=wrap;html=1;fillColor=#d5e8d4;strokeColor=#82b366;fontSize=18;container=0;" vertex="1" parent="Y8klcHg_xmhRVvrzgp0a-1666">
          <mxGeometry x="47.82312925170072" y="175.7766300366302" width="75.51020408163266" height="24.175824175824175" as="geometry" />
        </mxCell>
        <mxCell id="Y8klcHg_xmhRVvrzgp0a-1684" value="" style="rounded=0;whiteSpace=wrap;html=1;fillColor=#dae8fc;strokeColor=#6c8ebf;fontSize=18;container=0;" vertex="1" parent="Y8klcHg_xmhRVvrzgp0a-1666">
          <mxGeometry x="166.1224489795918" y="110.40293040293" width="75.51020408163266" height="24.175824175824175" as="geometry" />
        </mxCell>
        <mxCell id="Y8klcHg_xmhRVvrzgp0a-1685" value="" style="rounded=0;whiteSpace=wrap;html=1;fillColor=#dae8fc;strokeColor=#6c8ebf;fontSize=18;container=0;" vertex="1" parent="Y8klcHg_xmhRVvrzgp0a-1666">
          <mxGeometry x="166.1224489795918" y="134.57875457875434" width="75.51020408163266" height="24.175824175824175" as="geometry" />
        </mxCell>
        <mxCell id="Y8klcHg_xmhRVvrzgp0a-1686" value="" style="rounded=0;whiteSpace=wrap;html=1;fillColor=#f8cecc;strokeColor=#b85450;fontSize=18;container=0;" vertex="1" parent="Y8klcHg_xmhRVvrzgp0a-1666">
          <mxGeometry x="128.36734693877543" y="86.22710622710656" width="37.75510204081633" height="24.175824175824175" as="geometry" />
        </mxCell>
        <mxCell id="Y8klcHg_xmhRVvrzgp0a-1687" value="" style="shape=waypoint;sketch=0;fillStyle=solid;size=6;pointerEvents=1;points=[];fillColor=none;resizable=0;rotatable=0;perimeter=centerPerimeter;snapToPoint=1;fontSize=18;container=0;" vertex="1" parent="Y8klcHg_xmhRVvrzgp0a-1666">
          <mxGeometry x="137.24482993197284" y="88.31780219780194" width="20" height="20" as="geometry" />
        </mxCell>
        <mxCell id="Y8klcHg_xmhRVvrzgp0a-1688" value="" style="endArrow=none;html=1;rounded=0;fontSize=18;startSize=8;endSize=8;curved=1;exitX=0.401;exitY=0.833;exitDx=0;exitDy=0;exitPerimeter=0;" edge="1" parent="Y8klcHg_xmhRVvrzgp0a-1666" source="Y8klcHg_xmhRVvrzgp0a-1687">
          <mxGeometry width="50" height="50" relative="1" as="geometry">
            <mxPoint x="30.204081632653015" y="153.11355311355328" as="sourcePoint" />
            <mxPoint x="85.5782312925171" y="49.96336996336959" as="targetPoint" />
          </mxGeometry>
        </mxCell>
        <mxCell id="Y8klcHg_xmhRVvrzgp0a-1689" value="" style="endArrow=none;html=1;rounded=0;fontSize=18;startSize=8;endSize=8;curved=1;" edge="1" parent="Y8klcHg_xmhRVvrzgp0a-1666" source="Y8klcHg_xmhRVvrzgp0a-1698">
          <mxGeometry width="50" height="50" relative="1" as="geometry">
            <mxPoint x="203.8775510204082" y="124.10256410256443" as="sourcePoint" />
            <mxPoint x="145.98639455782313" y="99.52380952380918" as="targetPoint" />
          </mxGeometry>
        </mxCell>
        <mxCell id="Y8klcHg_xmhRVvrzgp0a-1690" value="" style="endArrow=none;html=1;rounded=0;fontSize=18;startSize=8;endSize=8;curved=1;exitX=0.5;exitY=0.55;exitDx=0;exitDy=0;exitPerimeter=0;" edge="1" parent="Y8klcHg_xmhRVvrzgp0a-1666" source="Y8klcHg_xmhRVvrzgp0a-1681">
          <mxGeometry width="50" height="50" relative="1" as="geometry">
            <mxPoint x="279.38775510204096" y="123.69963369963352" as="sourcePoint" />
            <mxPoint x="148.5034013605441" y="96.70329670329647" as="targetPoint" />
          </mxGeometry>
        </mxCell>
        <mxCell id="Y8klcHg_xmhRVvrzgp0a-1691" value="" style="shape=waypoint;sketch=0;fillStyle=solid;size=6;pointerEvents=1;points=[];fillColor=#0050ef;resizable=0;rotatable=0;perimeter=centerPerimeter;snapToPoint=1;strokeColor=#001DBC;fontColor=#ffffff;fontSize=18;container=0;" vertex="1" parent="Y8klcHg_xmhRVvrzgp0a-1666">
          <mxGeometry x="75.5781632653061" y="39.96615384615416" width="20" height="20" as="geometry" />
        </mxCell>
        <mxCell id="Y8klcHg_xmhRVvrzgp0a-1692" value="" style="shape=waypoint;sketch=0;fillStyle=solid;size=6;pointerEvents=1;points=[];fillColor=#0050ef;resizable=0;rotatable=0;perimeter=centerPerimeter;snapToPoint=1;strokeColor=#001DBC;fontColor=#ffffff;fontSize=18;container=0;" vertex="1" parent="Y8klcHg_xmhRVvrzgp0a-1666">
          <mxGeometry x="193.8774829931972" y="136.66945054945063" width="20" height="20" as="geometry" />
        </mxCell>
        <mxCell id="Y8klcHg_xmhRVvrzgp0a-1693" value="" style="shape=waypoint;sketch=0;fillStyle=solid;size=6;pointerEvents=1;points=[];fillColor=#0050ef;resizable=0;rotatable=0;perimeter=centerPerimeter;snapToPoint=1;strokeColor=#001DBC;fontColor=#ffffff;fontSize=18;container=0;" vertex="1" parent="Y8klcHg_xmhRVvrzgp0a-1666">
          <mxGeometry x="269.38768707482996" y="136.66945054945063" width="20" height="20" as="geometry" />
        </mxCell>
        <mxCell id="Y8klcHg_xmhRVvrzgp0a-1694" value="" style="shape=waypoint;sketch=0;fillStyle=solid;size=6;pointerEvents=1;points=[];fillColor=#0050ef;resizable=0;rotatable=0;perimeter=centerPerimeter;snapToPoint=1;strokeColor=#001DBC;fontColor=#ffffff;fontSize=18;container=0;" vertex="1" parent="Y8klcHg_xmhRVvrzgp0a-1666">
          <mxGeometry x="269.38768707482996" y="112.49362637362628" width="20" height="20" as="geometry" />
        </mxCell>
        <mxCell id="Y8klcHg_xmhRVvrzgp0a-1695" value="" style="shape=waypoint;sketch=0;fillStyle=solid;size=6;pointerEvents=1;points=[];fillColor=#0050ef;resizable=0;rotatable=0;perimeter=centerPerimeter;snapToPoint=1;strokeColor=#001DBC;fontColor=#ffffff;fontSize=18;container=0;" vertex="1" parent="Y8klcHg_xmhRVvrzgp0a-1666">
          <mxGeometry x="269.38768707482996" y="90.40538461538472" width="20" height="20" as="geometry" />
        </mxCell>
        <mxCell id="Y8klcHg_xmhRVvrzgp0a-1696" value="" style="shape=waypoint;sketch=0;fillStyle=solid;size=6;pointerEvents=1;points=[];fillColor=#0050ef;resizable=0;rotatable=0;perimeter=centerPerimeter;snapToPoint=1;strokeColor=#001DBC;fontColor=#ffffff;fontSize=18;container=0;" vertex="1" parent="Y8klcHg_xmhRVvrzgp0a-1666">
          <mxGeometry x="269.38768707482996" y="64.1419780219776" width="20" height="20" as="geometry" />
        </mxCell>
        <mxCell id="Y8klcHg_xmhRVvrzgp0a-1697" value="" style="shape=waypoint;sketch=0;fillStyle=solid;size=6;pointerEvents=1;points=[];fillColor=#0050ef;resizable=0;rotatable=0;perimeter=centerPerimeter;snapToPoint=1;strokeColor=#001DBC;fontColor=#ffffff;fontSize=18;container=0;" vertex="1" parent="Y8klcHg_xmhRVvrzgp0a-1666">
          <mxGeometry x="269.38768707482996" y="39.96615384615416" width="20" height="20" as="geometry" />
        </mxCell>
        <mxCell id="Y8klcHg_xmhRVvrzgp0a-1698" value="" style="shape=waypoint;sketch=0;fillStyle=solid;size=6;pointerEvents=1;points=[];fillColor=#0050ef;resizable=0;rotatable=0;perimeter=centerPerimeter;snapToPoint=1;strokeColor=#001DBC;fontColor=#ffffff;fontSize=18;container=0;" vertex="1" parent="Y8klcHg_xmhRVvrzgp0a-1666">
          <mxGeometry x="193.8774829931972" y="113.00293040293036" width="20" height="20" as="geometry" />
        </mxCell>
        <mxCell id="Y8klcHg_xmhRVvrzgp0a-1699" value="" style="endArrow=none;html=1;rounded=0;fontSize=18;startSize=8;endSize=8;curved=1;" edge="1" parent="Y8klcHg_xmhRVvrzgp0a-1666" source="Y8klcHg_xmhRVvrzgp0a-1697" target="Y8klcHg_xmhRVvrzgp0a-1687">
          <mxGeometry width="50" height="50" relative="1" as="geometry">
            <mxPoint x="289" y="84" as="sourcePoint" />
            <mxPoint x="160" y="110" as="targetPoint" />
          </mxGeometry>
        </mxCell>
        <mxCell id="Y8klcHg_xmhRVvrzgp0a-1700" value="" style="rounded=1;whiteSpace=wrap;html=1;fillColor=none;glass=0;dashed=1;dashPattern=12 12;strokeWidth=2;strokeColor=#000099;fontFamily=Times New Roman;container=0;" vertex="1" parent="Y8klcHg_xmhRVvrzgp0a-1666">
          <mxGeometry x="-22.5" y="-50" width="415" height="290" as="geometry" />
        </mxCell>
        <mxCell id="Y8klcHg_xmhRVvrzgp0a-1701" value="&amp;nbsp;DetourOper" style="text;html=1;align=center;verticalAlign=middle;whiteSpace=wrap;rounded=0;fontSize=29;fontFamily=Times New Roman;fontStyle=1" vertex="1" parent="1">
          <mxGeometry x="1630" y="4382" width="257.13" height="30" as="geometry" />
        </mxCell>
        <mxCell id="Y8klcHg_xmhRVvrzgp0a-1702" value="&amp;nbsp;NearOper" style="text;html=1;align=center;verticalAlign=middle;whiteSpace=wrap;rounded=0;fontSize=29;fontFamily=Times New Roman;fontStyle=1" vertex="1" parent="1">
          <mxGeometry x="1621" y="4696" width="257.13" height="30" as="geometry" />
        </mxCell>
        <mxCell id="Y8klcHg_xmhRVvrzgp0a-1703" value="" style="rounded=1;whiteSpace=wrap;html=1;fillColor=none;glass=0;dashed=1;dashPattern=12 12;strokeWidth=2;strokeColor=#000099;fontFamily=Times New Roman;container=0;" vertex="1" parent="1">
          <mxGeometry x="1649" y="4372" width="411" height="290" as="geometry" />
        </mxCell>
        <mxCell id="Y8klcHg_xmhRVvrzgp0a-1704" value="" style="ellipse;whiteSpace=wrap;html=1;strokeWidth=2;fillWeight=2;hachureGap=8;fillColor=#990000;fillStyle=dots;sketch=1;fontSize=18;container=0;" vertex="1" parent="1">
          <mxGeometry x="1665.0002512562814" y="4628.001875" width="54.949748743718594" height="16.4625" as="geometry" />
        </mxCell>
        <mxCell id="Y8klcHg_xmhRVvrzgp0a-1705" value="" style="ellipse;whiteSpace=wrap;html=1;strokeWidth=2;fillWeight=2;hachureGap=8;fillColor=#990000;fillStyle=dots;sketch=1;fontSize=18;container=0;" vertex="1" parent="1">
          <mxGeometry x="1661.3702512562813" y="4937.541875000001" width="54.949748743718594" height="16.4625" as="geometry" />
        </mxCell>
        <mxCell id="Y8klcHg_xmhRVvrzgp0a-1708" value="&lt;mxGraphModel&gt;&lt;root&gt;&lt;mxCell id=&quot;0&quot;/&gt;&lt;mxCell id=&quot;1&quot; parent=&quot;0&quot;/&gt;&lt;mxCell id=&quot;2&quot; value=&quot;&amp;lt;font style=&amp;quot;font-size: 26px;&amp;quot;&amp;gt;BalanceOper&amp;lt;/font&amp;gt;&quot; style=&quot;text;html=1;align=center;verticalAlign=middle;whiteSpace=wrap;rounded=0;fontFamily=Times New Roman;&quot; vertex=&quot;1&quot; parent=&quot;1&quot;&gt;&lt;mxGeometry x=&quot;49&quot; y=&quot;251&quot; width=&quot;113.1&quot; height=&quot;42&quot; as=&quot;geometry&quot;/&gt;&lt;/mxCell&gt;&lt;mxCell id=&quot;3&quot; value=&quot;&quot; style=&quot;rounded=1;whiteSpace=wrap;html=1;fillColor=none;glass=0;dashed=1;dashPattern=12 12;strokeWidth=2;strokeColor=#000099;fontFamily=Times New Roman;&quot; vertex=&quot;1&quot; parent=&quot;1&quot;&gt;&lt;mxGeometry x=&quot;-7.66&quot; y=&quot;290&quot; width=&quot;412&quot; height=&quot;516.04&quot; as=&quot;geometry&quot;/&gt;&lt;/mxCell&gt;&lt;mxCell id=&quot;4&quot; style=&quot;rounded=0;orthogonalLoop=1;jettySize=auto;html=1;exitX=1;exitY=0.5;exitDx=0;exitDy=0;entryX=-0.006;entryY=0.584;entryDx=0;entryDy=0;entryPerimeter=0;fontFamily=Times New Roman;&quot; edge=&quot;1&quot; source=&quot;6&quot; target=&quot;110&quot; parent=&quot;1&quot;&gt;&lt;mxGeometry relative=&quot;1&quot; as=&quot;geometry&quot;/&gt;&lt;/mxCell&gt;&lt;mxCell id=&quot;5&quot; style=&quot;rounded=0;orthogonalLoop=1;jettySize=auto;html=1;exitX=1;exitY=0.5;exitDx=0;exitDy=0;entryX=0;entryY=0.5;entryDx=0;entryDy=0;fontFamily=Times New Roman;&quot; edge=&quot;1&quot; source=&quot;6&quot; target=&quot;58&quot; parent=&quot;1&quot;&gt;&lt;mxGeometry relative=&quot;1&quot; as=&quot;geometry&quot;/&gt;&lt;/mxCell&gt;&lt;mxCell id=&quot;6&quot; value=&quot;&quot; style=&quot;rounded=1;whiteSpace=wrap;html=1;fillColor=#f5f5f5;strokeWidth=2;fontColor=#333333;strokeColor=#666666;rotation=90;container=0;fontFamily=Times New Roman;&quot; vertex=&quot;1&quot; parent=&quot;1&quot;&gt;&lt;mxGeometry x=&quot;96.4879819119949&quot; y=&quot;313.68685376661745&quot; width=&quot;198.5821786770247&quot; height=&quot;172.55539143279174&quot; as=&quot;geometry&quot;/&gt;&lt;/mxCell&gt;&lt;mxCell id=&quot;7&quot; value=&quot;&quot; style=&quot;rounded=0;whiteSpace=wrap;html=1;fillColor=#d5e8d4;strokeColor=#82b366;container=0;rotation=90;fontFamily=Times New Roman;&quot; vertex=&quot;1&quot; parent=&quot;1&quot;&gt;&lt;mxGeometry x=&quot;255.35372485361466&quot; y=&quot;405.4549483013294&quot; width=&quot;22.730021682416364&quot; height=&quot;10.609466315586669&quot; as=&quot;geometry&quot;/&gt;&lt;/mxCell&gt;&lt;mxCell id=&quot;8&quot; value=&quot;&quot; style=&quot;rounded=0;whiteSpace=wrap;html=1;fillColor=#d5e8d4;strokeColor=#82b366;container=0;rotation=90;fontFamily=Times New Roman;&quot; vertex=&quot;1&quot; parent=&quot;1&quot;&gt;&lt;mxGeometry x=&quot;245.42461591976343&quot; y=&quot;405.4549483013294&quot; width=&quot;22.730021682416364&quot; height=&quot;10.609466315586669&quot; as=&quot;geometry&quot;/&gt;&lt;/mxCell&gt;&lt;mxCell id=&quot;9&quot; value=&quot;&quot; style=&quot;rounded=0;whiteSpace=wrap;html=1;fillColor=#d5e8d4;strokeColor=#82b366;container=0;rotation=90;fontFamily=Times New Roman;&quot; vertex=&quot;1&quot; parent=&quot;1&quot;&gt;&lt;mxGeometry x=&quot;234.73172937561594&quot; y=&quot;405.4549483013294&quot; width=&quot;22.730021682416364&quot; height=&quot;10.609466315586669&quot; as=&quot;geometry&quot;/&gt;&lt;/mxCell&gt;&lt;mxCell id=&quot;10&quot; value=&quot;&quot; style=&quot;rounded=0;whiteSpace=wrap;html=1;fillColor=#d5e8d4;strokeColor=#82b366;container=0;rotation=90;fontFamily=Times New Roman;&quot; vertex=&quot;1&quot; parent=&quot;1&quot;&gt;&lt;mxGeometry x=&quot;224.8026204417647&quot; y=&quot;405.4549483013294&quot; width=&quot;22.730021682416364&quot; height=&quot;10.609466315586669&quot; as=&quot;geometry&quot;/&gt;&lt;/mxCell&gt;&lt;mxCell id=&quot;11&quot; value=&quot;&quot; style=&quot;rounded=0;whiteSpace=wrap;html=1;fillColor=#d5e8d4;strokeColor=#82b366;container=0;rotation=90;fontFamily=Times New Roman;&quot; vertex=&quot;1&quot; parent=&quot;1&quot;&gt;&lt;mxGeometry x=&quot;208.76329062554348&quot; y=&quot;405.4549483013294&quot; width=&quot;22.730021682416364&quot; height=&quot;10.609466315586669&quot; as=&quot;geometry&quot;/&gt;&lt;/mxCell&gt;&lt;mxCell id=&quot;12&quot; value=&quot;&quot; style=&quot;rounded=0;whiteSpace=wrap;html=1;fillColor=#d5e8d4;strokeColor=#82b366;container=0;rotation=90;fontFamily=Times New Roman;&quot; vertex=&quot;1&quot; parent=&quot;1&quot;&gt;&lt;mxGeometry x=&quot;198.8341816916922&quot; y=&quot;405.4549483013294&quot; width=&quot;22.730021682416364&quot; height=&quot;10.609466315586669&quot; as=&quot;geometry&quot;/&gt;&lt;/mxCell&gt;&lt;mxCell id=&quot;13&quot; value=&quot;&quot; style=&quot;rounded=0;whiteSpace=wrap;html=1;fillColor=#d5e8d4;strokeColor=#82b366;container=0;rotation=90;fontFamily=Times New Roman;&quot; vertex=&quot;1&quot; parent=&quot;1&quot;&gt;&lt;mxGeometry x=&quot;188.14129514754475&quot; y=&quot;405.4549483013294&quot; width=&quot;22.730021682416364&quot; height=&quot;10.609466315586669&quot; as=&quot;geometry&quot;/&gt;&lt;/mxCell&gt;&lt;mxCell id=&quot;14&quot; value=&quot;&quot; style=&quot;rounded=0;whiteSpace=wrap;html=1;fillColor=#d5e8d4;strokeColor=#82b366;container=0;rotation=90;fontFamily=Times New Roman;&quot; vertex=&quot;1&quot; parent=&quot;1&quot;&gt;&lt;mxGeometry x=&quot;234.73172937561594&quot; y=&quot;436.8286558345642&quot; width=&quot;22.730021682416364&quot; height=&quot;10.609466315586669&quot; as=&quot;geometry&quot;/&gt;&lt;/mxCell&gt;&lt;mxCell id=&quot;15&quot; value=&quot;&quot; style=&quot;rounded=0;whiteSpace=wrap;html=1;fillColor=#d5e8d4;strokeColor=#82b366;container=0;rotation=90;fontFamily=Times New Roman;&quot; vertex=&quot;1&quot; parent=&quot;1&quot;&gt;&lt;mxGeometry x=&quot;224.8026204417647&quot; y=&quot;436.8286558345642&quot; width=&quot;22.730021682416364&quot; height=&quot;10.609466315586669&quot; as=&quot;geometry&quot;/&gt;&lt;/mxCell&gt;&lt;mxCell id=&quot;16&quot; value=&quot;&quot; style=&quot;rounded=0;whiteSpace=wrap;html=1;fillColor=#d5e8d4;strokeColor=#82b366;container=0;rotation=90;fontFamily=Times New Roman;&quot; vertex=&quot;1&quot; parent=&quot;1&quot;&gt;&lt;mxGeometry x=&quot;214.10973389761722&quot; y=&quot;436.8286558345642&quot; width=&quot;22.730021682416364&quot; height=&quot;10.609466315586669&quot; as=&quot;geometry&quot;/&gt;&lt;/mxCell&gt;&lt;mxCell id=&quot;17&quot; value=&quot;&quot; style=&quot;rounded=0;whiteSpace=wrap;html=1;fillColor=#f8cecc;strokeColor=#b85450;container=0;rotation=90;fontFamily=Times New Roman;&quot; vertex=&quot;1&quot; parent=&quot;1&quot;&gt;&lt;mxGeometry x=&quot;195.01529364021098&quot; y=&quot;370.94387001477105&quot; width=&quot;22.730021682416364&quot; height=&quot;10.609466315586669&quot; as=&quot;geometry&quot;/&gt;&lt;/mxCell&gt;&lt;mxCell id=&quot;18&quot; value=&quot;&quot; style=&quot;rounded=0;whiteSpace=wrap;html=1;fillColor=#f8cecc;strokeColor=#b85450;container=0;rotation=90;fontFamily=Times New Roman;&quot; vertex=&quot;1&quot; parent=&quot;1&quot;&gt;&lt;mxGeometry x=&quot;165.22796683865727&quot; y=&quot;340.3545051698671&quot; width=&quot;22.730021682416364&quot; height=&quot;10.609466315586669&quot; as=&quot;geometry&quot;/&gt;&lt;/mxCell&gt;&lt;mxCell id=&quot;19&quot; value=&quot;&quot; style=&quot;rounded=0;whiteSpace=wrap;html=1;fillColor=#f8cecc;strokeColor=#b85450;container=0;rotation=90;fontFamily=Times New Roman;&quot; vertex=&quot;1&quot; parent=&quot;1&quot;&gt;&lt;mxGeometry x=&quot;154.5350802945098&quot; y=&quot;340.3545051698671&quot; width=&quot;22.730021682416364&quot; height=&quot;10.609466315586669&quot; as=&quot;geometry&quot;/&gt;&lt;/mxCell&gt;&lt;mxCell id=&quot;20&quot; value=&quot;&quot; style=&quot;rounded=0;whiteSpace=wrap;html=1;fillColor=#f8cecc;strokeColor=#b85450;container=0;rotation=90;fontFamily=Times New Roman;&quot; vertex=&quot;1&quot; parent=&quot;1&quot;&gt;&lt;mxGeometry x=&quot;144.60597136065857&quot; y=&quot;340.3545051698671&quot; width=&quot;22.730021682416364&quot; height=&quot;10.609466315586669&quot; as=&quot;geometry&quot;/&gt;&lt;/mxCell&gt;&lt;mxCell id=&quot;21&quot; value=&quot;&quot; style=&quot;rounded=0;whiteSpace=wrap;html=1;fillColor=#f8cecc;strokeColor=#b85450;container=0;rotation=90;fontFamily=Times New Roman;&quot; vertex=&quot;1&quot; parent=&quot;1&quot;&gt;&lt;mxGeometry x=&quot;133.9130848165111&quot; y=&quot;340.3545051698671&quot; width=&quot;22.730021682416364&quot; height=&quot;10.609466315586669&quot; as=&quot;geometry&quot;/&gt;&lt;/mxCell&gt;&lt;mxCell id=&quot;22&quot; value=&quot;&quot; style=&quot;rounded=0;whiteSpace=wrap;html=1;fillColor=#f8cecc;strokeColor=#b85450;container=0;rotation=90;fontFamily=Times New Roman;&quot; vertex=&quot;1&quot; parent=&quot;1&quot;&gt;&lt;mxGeometry x=&quot;146.8973041915473&quot; y=&quot;317.6085672082718&quot; width=&quot;22.730021682416364&quot; height=&quot;10.609466315586669&quot; as=&quot;geometry&quot;/&gt;&lt;/mxCell&gt;&lt;mxCell id=&quot;23&quot; value=&quot;&quot; style=&quot;rounded=0;whiteSpace=wrap;html=1;fillColor=#f8cecc;strokeColor=#b85450;container=0;rotation=90;fontFamily=Times New Roman;&quot; vertex=&quot;1&quot; parent=&quot;1&quot;&gt;&lt;mxGeometry x=&quot;123.98397588265985&quot; y=&quot;317.6085672082718&quot; width=&quot;22.730021682416364&quot; height=&quot;10.609466315586669&quot; as=&quot;geometry&quot;/&gt;&lt;/mxCell&gt;&lt;mxCell id=&quot;24&quot; value=&quot;&quot; style=&quot;rounded=0;whiteSpace=wrap;html=1;fillColor=#f8cecc;strokeColor=#b85450;container=0;rotation=90;fontFamily=Times New Roman;&quot; vertex=&quot;1&quot; parent=&quot;1&quot;&gt;&lt;mxGeometry x=&quot;120.92886544147484&quot; y=&quot;363.8847858197932&quot; width=&quot;22.730021682416364&quot; height=&quot;10.609466315586669&quot; as=&quot;geometry&quot;/&gt;&lt;/mxCell&gt;&lt;mxCell id=&quot;25&quot; value=&quot;&quot; style=&quot;rounded=0;whiteSpace=wrap;html=1;fillColor=#f8cecc;strokeColor=#b85450;container=0;rotation=90;fontFamily=Times New Roman;&quot; vertex=&quot;1&quot; parent=&quot;1&quot;&gt;&lt;mxGeometry x=&quot;144.60597136065857&quot; y=&quot;367.0221565731167&quot; width=&quot;22.730021682416364&quot; height=&quot;10.609466315586669&quot; as=&quot;geometry&quot;/&gt;&lt;/mxCell&gt;&lt;mxCell id=&quot;26&quot; value=&quot;&quot; style=&quot;rounded=0;whiteSpace=wrap;html=1;fillColor=#f8cecc;strokeColor=#b85450;container=0;rotation=90;fontFamily=Times New Roman;&quot; vertex=&quot;1&quot; parent=&quot;1&quot;&gt;&lt;mxGeometry x=&quot;162.1728563974723&quot; y=&quot;367.0221565731167&quot; width=&quot;22.730021682416364&quot; height=&quot;10.609466315586669&quot; as=&quot;geometry&quot;/&gt;&lt;/mxCell&gt;&lt;mxCell id=&quot;27&quot; value=&quot;&quot; style=&quot;rounded=0;whiteSpace=wrap;html=1;fillColor=#fff2cc;strokeColor=#d6b656;container=0;rotation=90;fontFamily=Times New Roman;&quot; vertex=&quot;1&quot; parent=&quot;1&quot;&gt;&lt;mxGeometry x=&quot;146.8973041915473&quot; y=&quot;405.4549483013294&quot; width=&quot;22.730021682416364&quot; height=&quot;10.609466315586669&quot; as=&quot;geometry&quot;/&gt;&lt;/mxCell&gt;&lt;mxCell id=&quot;28&quot; value=&quot;&quot; style=&quot;rounded=0;whiteSpace=wrap;html=1;fillColor=#fff2cc;strokeColor=#d6b656;container=0;rotation=90;fontFamily=Times New Roman;&quot; vertex=&quot;1&quot; parent=&quot;1&quot;&gt;&lt;mxGeometry x=&quot;135.44064003710358&quot; y=&quot;391.3367799113737&quot; width=&quot;22.730021682416364&quot; height=&quot;10.609466315586669&quot; as=&quot;geometry&quot;/&gt;&lt;/mxCell&gt;&lt;mxCell id=&quot;29&quot; value=&quot;&quot; style=&quot;rounded=0;whiteSpace=wrap;html=1;fillColor=#fff2cc;strokeColor=#d6b656;container=0;rotation=90;fontFamily=Times New Roman;&quot; vertex=&quot;1&quot; parent=&quot;1&quot;&gt;&lt;mxGeometry x=&quot;157.5901907356948&quot; y=&quot;428.9852289512555&quot; width=&quot;22.730021682416364&quot; height=&quot;10.609466315586669&quot; as=&quot;geometry&quot;/&gt;&lt;/mxCell&gt;&lt;mxCell id=&quot;30&quot; value=&quot;&quot; style=&quot;rounded=0;whiteSpace=wrap;html=1;fillColor=#d5e8d4;strokeColor=#82b366;container=0;rotation=90;fontFamily=Times New Roman;&quot; vertex=&quot;1&quot; parent=&quot;1&quot;&gt;&lt;mxGeometry x=&quot;204.18062496376598&quot; y=&quot;436.8286558345642&quot; width=&quot;22.730021682416364&quot; height=&quot;10.609466315586669&quot; as=&quot;geometry&quot;/&gt;&lt;/mxCell&gt;&lt;mxCell id=&quot;31&quot; value=&quot;&quot; style=&quot;rounded=0;whiteSpace=wrap;html=1;fillColor=#fff2cc;strokeColor=#d6b656;container=0;rotation=90;fontFamily=Times New Roman;&quot; vertex=&quot;1&quot; parent=&quot;1&quot;&gt;&lt;mxGeometry x=&quot;141.55086091947356&quot; y=&quot;428.9852289512555&quot; width=&quot;22.730021682416364&quot; height=&quot;10.609466315586669&quot; as=&quot;geometry&quot;/&gt;&lt;/mxCell&gt;&lt;mxCell id=&quot;32&quot; value=&quot;&quot; style=&quot;rounded=0;whiteSpace=wrap;html=1;fillColor=#f8cecc;strokeColor=#b85450;container=0;rotation=90;fontFamily=Times New Roman;&quot; vertex=&quot;1&quot; parent=&quot;1&quot;&gt;&lt;mxGeometry x=&quot;162.1728563974723&quot; y=&quot;312.1181683899557&quot; width=&quot;22.730021682416364&quot; height=&quot;10.609466315586669&quot; as=&quot;geometry&quot;/&gt;&lt;/mxCell&gt;&lt;mxCell id=&quot;33&quot; value=&quot;&quot; style=&quot;rounded=0;whiteSpace=wrap;html=1;fillColor=#f8cecc;strokeColor=#b85450;container=0;rotation=90;fontFamily=Times New Roman;&quot; vertex=&quot;1&quot; parent=&quot;1&quot;&gt;&lt;mxGeometry x=&quot;113.29108933851236&quot; y=&quot;317.6085672082718&quot; width=&quot;22.730021682416364&quot; height=&quot;10.609466315586669&quot; as=&quot;geometry&quot;/&gt;&lt;/mxCell&gt;&lt;mxCell id=&quot;34&quot; value=&quot;&quot; style=&quot;rounded=0;whiteSpace=wrap;html=1;fillColor=#fff2cc;strokeColor=#d6b656;container=0;rotation=90;fontFamily=Times New Roman;&quot; vertex=&quot;1&quot; parent=&quot;1&quot;&gt;&lt;mxGeometry x=&quot;162.1728563974723&quot; y=&quot;405.4549483013294&quot; width=&quot;22.730021682416364&quot; height=&quot;10.609466315586669&quot; as=&quot;geometry&quot;/&gt;&lt;/mxCell&gt;&lt;mxCell id=&quot;35&quot; value=&quot;&quot; style=&quot;rounded=0;whiteSpace=wrap;html=1;fillColor=#d5e8d4;strokeColor=#82b366;container=0;rotation=90;fontFamily=Times New Roman;&quot; vertex=&quot;1&quot; parent=&quot;1&quot;&gt;&lt;mxGeometry x=&quot;178.2121862136935&quot; y=&quot;428.9852289512555&quot; width=&quot;22.730021682416364&quot; height=&quot;10.609466315586669&quot; as=&quot;geometry&quot;/&gt;&lt;/mxCell&gt;&lt;mxCell id=&quot;36&quot; value=&quot;&quot; style=&quot;rounded=0;whiteSpace=wrap;html=1;fillColor=#fff2cc;strokeColor=#d6b656;container=0;rotation=90;fontFamily=Times New Roman;&quot; vertex=&quot;1&quot; parent=&quot;1&quot;&gt;&lt;mxGeometry x=&quot;131.62175198562232&quot; y=&quot;428.9852289512555&quot; width=&quot;22.730021682416364&quot; height=&quot;10.609466315586669&quot; as=&quot;geometry&quot;/&gt;&lt;/mxCell&gt;&lt;mxCell id=&quot;37&quot; value=&quot;&amp;lt;span style=&amp;quot;color: rgba(0, 0, 0, 0); font-size: 0px; text-align: start; text-wrap: nowrap;&amp;quot;&amp;gt;%3CmxGraphModel%3E%3Croot%3E%3CmxCell%20id%3D%220%22%2F%3E%3CmxCell%20id%3D%221%22%20parent%3D%220%22%2F%3E%3CmxCell%20id%3D%222%22%20value%3D%22%22%20style%3D%22rounded%3D0%3BwhiteSpace%3Dwrap%3Bhtml%3D1%3BfillColor%3D%23dae8fc%3BstrokeColor%3D%236c8ebf%3B%22%20vertex%3D%221%22%20parent%3D%221%22%3E%3CmxGeometry%20x%3D%22610%22%20y%3D%22480%22%20width%3D%2290%22%20height%3D%2240%22%20as%3D%22geometry%22%2F%3E%3C%2FmxCell%3E%3C%2Froot%3E%3C%2FmxGraphModel%3E&amp;lt;/span&amp;gt;&quot; style=&quot;rounded=0;whiteSpace=wrap;html=1;fillColor=#fff2cc;strokeColor=#d6b656;container=0;rotation=90;fontFamily=Times New Roman;&quot; vertex=&quot;1&quot; parent=&quot;1&quot;&gt;&lt;mxGeometry x=&quot;149.18863702243607&quot; y=&quot;454.86853766617423&quot; width=&quot;22.730021682416364&quot; height=&quot;10.609466315586669&quot; as=&quot;geometry&quot;/&gt;&lt;/mxCell&gt;&lt;mxCell id=&quot;38&quot; value=&quot;&amp;lt;span style=&amp;quot;color: rgba(0, 0, 0, 0); font-size: 0px; text-align: start; text-wrap: nowrap;&amp;quot;&amp;gt;%3CmxGraphModel%3E%3Croot%3E%3CmxCell%20id%3D%220%22%2F%3E%3CmxCell%20id%3D%221%22%20parent%3D%220%22%2F%3E%3CmxCell%20id%3D%222%22%20value%3D%22%22%20style%3D%22rounded%3D0%3BwhiteSpace%3Dwrap%3Bhtml%3D1%3BfillColor%3D%23dae8fc%3BstrokeColor%3D%236c8ebf%3B%22%20vertex%3D%221%22%20parent%3D%221%22%3E%3CmxGeometry%20x%3D%22610%22%20y%3D%22480%22%20width%3D%2290%22%20height%3D%2240%22%20as%3D%22geometry%22%2F%3E%3C%2FmxCell%3E%3C%2Froot%3E%3C%2FmxGraphModel%3E&amp;lt;/span&amp;gt;&quot; style=&quot;rounded=0;whiteSpace=wrap;html=1;fillColor=#fff2cc;strokeColor=#d6b656;container=0;rotation=90;fontFamily=Times New Roman;&quot; vertex=&quot;1&quot; parent=&quot;1&quot;&gt;&lt;mxGeometry x=&quot;139.25952808858483&quot; y=&quot;454.86853766617423&quot; width=&quot;22.730021682416364&quot; height=&quot;10.609466315586669&quot; as=&quot;geometry&quot;/&gt;&lt;/mxCell&gt;&lt;mxCell id=&quot;39&quot; value=&quot;&amp;lt;span style=&amp;quot;color: rgba(0, 0, 0, 0); font-size: 0px; text-align: start; text-wrap: nowrap;&amp;quot;&amp;gt;%3CmxGraphModel%3E%3Croot%3E%3CmxCell%20id%3D%220%22%2F%3E%3CmxCell%20id%3D%221%22%20parent%3D%220%22%2F%3E%3CmxCell%20id%3D%222%22%20value%3D%22%22%20style%3D%22rounded%3D0%3BwhiteSpace%3Dwrap%3Bhtml%3D1%3BfillColor%3D%23dae8fc%3BstrokeColor%3D%236c8ebf%3B%22%20vertex%3D%221%22%20parent%3D%221%22%3E%3CmxGeometry%20x%3D%22610%22%20y%3D%22480%22%20width%3D%2290%22%20height%3D%2240%22%20as%3D%22geometry%22%2F%3E%3C%2FmxCell%3E%3C%2Froot%3E%3C%2FmxGraphModel%3E&amp;lt;/span&amp;gt;&quot; style=&quot;rounded=0;whiteSpace=wrap;html=1;fillColor=#fff2cc;strokeColor=#d6b656;container=0;rotation=90;fontFamily=Times New Roman;&quot; vertex=&quot;1&quot; parent=&quot;1&quot;&gt;&lt;mxGeometry x=&quot;128.56664154443735&quot; y=&quot;454.86853766617423&quot; width=&quot;22.730021682416364&quot; height=&quot;10.609466315586669&quot; as=&quot;geometry&quot;/&gt;&lt;/mxCell&gt;&lt;mxCell id=&quot;40&quot; value=&quot;&amp;lt;span style=&amp;quot;color: rgba(0, 0, 0, 0); font-size: 0px; text-align: start; text-wrap: nowrap;&amp;quot;&amp;gt;%3CmxGraphModel%3E%3Croot%3E%3CmxCell%20id%3D%220%22%2F%3E%3CmxCell%20id%3D%221%22%20parent%3D%220%22%2F%3E%3CmxCell%20id%3D%222%22%20value%3D%22%22%20style%3D%22rounded%3D0%3BwhiteSpace%3Dwrap%3Bhtml%3D1%3BfillColor%3D%23dae8fc%3BstrokeColor%3D%236c8ebf%3B%22%20vertex%3D%221%22%20parent%3D%221%22%3E%3CmxGeometry%20x%3D%22610%22%20y%3D%22480%22%20width%3D%2290%22%20height%3D%2240%22%20as%3D%22geometry%22%2F%3E%3C%2FmxCell%3E%3C%2Froot%3E%3C%2FmxGraphModel%3E&amp;lt;/span&amp;gt;&quot; style=&quot;rounded=0;whiteSpace=wrap;html=1;fillColor=#fff2cc;strokeColor=#d6b656;container=0;rotation=90;fontFamily=Times New Roman;&quot; vertex=&quot;1&quot; parent=&quot;1&quot;&gt;&lt;mxGeometry x=&quot;118.6375326105861&quot; y=&quot;454.86853766617423&quot; width=&quot;22.730021682416364&quot; height=&quot;10.609466315586669&quot; as=&quot;geometry&quot;/&gt;&lt;/mxCell&gt;&lt;mxCell id=&quot;41&quot; value=&quot;&amp;lt;span style=&amp;quot;color: rgba(0, 0, 0, 0); font-size: 0px; text-align: start; text-wrap: nowrap;&amp;quot;&amp;gt;%3CmxGraphModel%3E%3Croot%3E%3CmxCell%20id%3D%220%22%2F%3E%3CmxCell%20id%3D%221%22%20parent%3D%220%22%2F%3E%3CmxCell%20id%3D%222%22%20value%3D%22%22%20style%3D%22rounded%3D0%3BwhiteSpace%3Dwrap%3Bhtml%3D1%3BfillColor%3D%23dae8fc%3BstrokeColor%3D%236c8ebf%3B%22%20vertex%3D%221%22%20parent%3D%221%22%3E%3CmxGeometry%20x%3D%22610%22%20y%3D%22480%22%20width%3D%2290%22%20height%3D%2240%22%20as%3D%22geometry%22%2F%3E%3C%2FmxCell%3E%3C%2Froot%3E%3C%2FmxGraphModel%3E&amp;lt;/span&amp;gt;&quot; style=&quot;rounded=0;whiteSpace=wrap;html=1;fillColor=#fff2cc;strokeColor=#d6b656;container=0;rotation=90;fontFamily=Times New Roman;&quot; vertex=&quot;1&quot; parent=&quot;1&quot;&gt;&lt;mxGeometry x=&quot;113.29108933851236&quot; y=&quot;428.9852289512555&quot; width=&quot;22.730021682416364&quot; height=&quot;10.609466315586669&quot; as=&quot;geometry&quot;/&gt;&lt;/mxCell&gt;&lt;mxCell id=&quot;42&quot; value=&quot;&amp;lt;span style=&amp;quot;color: rgba(0, 0, 0, 0); font-size: 0px; text-align: start; text-wrap: nowrap;&amp;quot;&amp;gt;%3CmxGraphModel%3E%3Croot%3E%3CmxCell%20id%3D%220%22%2F%3E%3CmxCell%20id%3D%221%22%20parent%3D%220%22%2F%3E%3CmxCell%20id%3D%222%22%20value%3D%22%22%20style%3D%22rounded%3D0%3BwhiteSpace%3Dwrap%3Bhtml%3D1%3BfillColor%3D%23dae8fc%3BstrokeColor%3D%236c8ebf%3B%22%20vertex%3D%221%22%20parent%3D%221%22%3E%3CmxGeometry%20x%3D%22610%22%20y%3D%22480%22%20width%3D%2290%22%20height%3D%2240%22%20as%3D%22geometry%22%2F%3E%3C%2FmxCell%3E%3C%2Froot%3E%3C%2FmxGraphModel%3E&amp;lt;/span&amp;gt;&quot; style=&quot;rounded=0;whiteSpace=wrap;html=1;fillColor=#fff2cc;strokeColor=#d6b656;container=0;rotation=90;fontFamily=Times New Roman;&quot; vertex=&quot;1&quot; parent=&quot;1&quot;&gt;&lt;mxGeometry x=&quot;139.25952808858483&quot; y=&quot;478.39881831610046&quot; width=&quot;22.730021682416364&quot; height=&quot;10.609466315586669&quot; as=&quot;geometry&quot;/&gt;&lt;/mxCell&gt;&lt;mxCell id=&quot;43&quot; value=&quot;&quot; style=&quot;rounded=0;whiteSpace=wrap;html=1;fillColor=#dae8fc;strokeColor=#6c8ebf;container=0;rotation=90;fontFamily=Times New Roman;&quot; vertex=&quot;1&quot; parent=&quot;1&quot;&gt;&lt;mxGeometry x=&quot;245.42461591976343&quot; y=&quot;312.1181683899557&quot; width=&quot;22.730021682416364&quot; height=&quot;10.609466315586669&quot; as=&quot;geometry&quot;/&gt;&lt;/mxCell&gt;&lt;mxCell id=&quot;44&quot; value=&quot;&quot; style=&quot;rounded=0;whiteSpace=wrap;html=1;fillColor=#dae8fc;strokeColor=#6c8ebf;container=0;rotation=90;fontFamily=Times New Roman;&quot; vertex=&quot;1&quot; parent=&quot;1&quot;&gt;&lt;mxGeometry x=&quot;234.73172937561594&quot; y=&quot;312.1181683899557&quot; width=&quot;22.730021682416364&quot; height=&quot;10.609466315586669&quot; as=&quot;geometry&quot;/&gt;&lt;/mxCell&gt;&lt;mxCell id=&quot;45&quot; value=&quot;&quot; style=&quot;rounded=0;whiteSpace=wrap;html=1;fillColor=#dae8fc;strokeColor=#6c8ebf;container=0;rotation=90;fontFamily=Times New Roman;&quot; vertex=&quot;1&quot; parent=&quot;1&quot;&gt;&lt;mxGeometry x=&quot;255.35372485361466&quot; y=&quot;340.3545051698671&quot; width=&quot;22.730021682416364&quot; height=&quot;10.609466315586669&quot; as=&quot;geometry&quot;/&gt;&lt;/mxCell&gt;&lt;mxCell id=&quot;46&quot; value=&quot;&quot; style=&quot;rounded=0;whiteSpace=wrap;html=1;fillColor=#dae8fc;strokeColor=#6c8ebf;container=0;rotation=90;fontFamily=Times New Roman;&quot; vertex=&quot;1&quot; parent=&quot;1&quot;&gt;&lt;mxGeometry x=&quot;245.42461591976343&quot; y=&quot;340.3545051698671&quot; width=&quot;22.730021682416364&quot; height=&quot;10.609466315586669&quot; as=&quot;geometry&quot;/&gt;&lt;/mxCell&gt;&lt;mxCell id=&quot;47&quot; value=&quot;&quot; style=&quot;rounded=0;whiteSpace=wrap;html=1;fillColor=#dae8fc;strokeColor=#6c8ebf;container=0;rotation=90;fontFamily=Times New Roman;&quot; vertex=&quot;1&quot; parent=&quot;1&quot;&gt;&lt;mxGeometry x=&quot;224.8026204417647&quot; y=&quot;312.1181683899557&quot; width=&quot;22.730021682416364&quot; height=&quot;10.609466315586669&quot; as=&quot;geometry&quot;/&gt;&lt;/mxCell&gt;&lt;mxCell id=&quot;48&quot; value=&quot;&quot; style=&quot;rounded=0;whiteSpace=wrap;html=1;fillColor=#dae8fc;strokeColor=#6c8ebf;container=0;rotation=90;fontFamily=Times New Roman;&quot; vertex=&quot;1&quot; parent=&quot;1&quot;&gt;&lt;mxGeometry x=&quot;227.09395327265344&quot; y=&quot;340.3545051698671&quot; width=&quot;22.730021682416364&quot; height=&quot;10.609466315586669&quot; as=&quot;geometry&quot;/&gt;&lt;/mxCell&gt;&lt;mxCell id=&quot;49&quot; value=&quot;&quot; style=&quot;rounded=0;whiteSpace=wrap;html=1;fillColor=#dae8fc;strokeColor=#6c8ebf;container=0;rotation=90;fontFamily=Times New Roman;&quot; vertex=&quot;1&quot; parent=&quot;1&quot;&gt;&lt;mxGeometry x=&quot;206.47195779465474&quot; y=&quot;340.3545051698671&quot; width=&quot;22.730021682416364&quot; height=&quot;10.609466315586669&quot; as=&quot;geometry&quot;/&gt;&lt;/mxCell&gt;&lt;mxCell id=&quot;50&quot; value=&quot;&quot; style=&quot;rounded=0;whiteSpace=wrap;html=1;fillColor=#dae8fc;strokeColor=#6c8ebf;container=0;rotation=90;fontFamily=Times New Roman;&quot; vertex=&quot;1&quot; parent=&quot;1&quot;&gt;&lt;mxGeometry x=&quot;196.5428488608035&quot; y=&quot;340.3545051698671&quot; width=&quot;22.730021682416364&quot; height=&quot;10.609466315586669&quot; as=&quot;geometry&quot;/&gt;&lt;/mxCell&gt;&lt;mxCell id=&quot;51&quot; value=&quot;&quot; style=&quot;rounded=0;whiteSpace=wrap;html=1;fillColor=#dae8fc;strokeColor=#6c8ebf;container=0;rotation=90;fontFamily=Times New Roman;&quot; vertex=&quot;1&quot; parent=&quot;1&quot;&gt;&lt;mxGeometry x=&quot;206.47195779465474&quot; y=&quot;312.1181683899557&quot; width=&quot;22.730021682416364&quot; height=&quot;10.609466315586669&quot; as=&quot;geometry&quot;/&gt;&lt;/mxCell&gt;&lt;mxCell id=&quot;52&quot; value=&quot;&quot; style=&quot;rounded=0;whiteSpace=wrap;html=1;fillColor=#dae8fc;strokeColor=#6c8ebf;container=0;rotation=90;fontFamily=Times New Roman;&quot; vertex=&quot;1&quot; parent=&quot;1&quot;&gt;&lt;mxGeometry x=&quot;217.1648443388022&quot; y=&quot;340.3545051698671&quot; width=&quot;22.730021682416364&quot; height=&quot;10.609466315586669&quot; as=&quot;geometry&quot;/&gt;&lt;/mxCell&gt;&lt;mxCell id=&quot;53&quot; value=&quot;&quot; style=&quot;rounded=0;whiteSpace=wrap;html=1;fillColor=#dae8fc;strokeColor=#6c8ebf;container=0;rotation=90;fontFamily=Times New Roman;&quot; vertex=&quot;1&quot; parent=&quot;1&quot;&gt;&lt;mxGeometry x=&quot;185.849962316656&quot; y=&quot;340.3545051698671&quot; width=&quot;22.730021682416364&quot; height=&quot;10.609466315586669&quot; as=&quot;geometry&quot;/&gt;&lt;/mxCell&gt;&lt;mxCell id=&quot;54&quot; value=&quot;&quot; style=&quot;rounded=0;whiteSpace=wrap;html=1;fillColor=#dae8fc;strokeColor=#6c8ebf;container=0;rotation=90;fontFamily=Times New Roman;&quot; vertex=&quot;1&quot; parent=&quot;1&quot;&gt;&lt;mxGeometry x=&quot;196.5428488608035&quot; y=&quot;312.1181683899557&quot; width=&quot;22.730021682416364&quot; height=&quot;10.609466315586669&quot; as=&quot;geometry&quot;/&gt;&lt;/mxCell&gt;&lt;mxCell id=&quot;55&quot; value=&quot;&quot; style=&quot;rounded=1;whiteSpace=wrap;html=1;fillColor=none;strokeWidth=2;glass=0;shadow=1;dashed=1;rotation=90;container=0;fontFamily=Times New Roman;&quot; vertex=&quot;1&quot; parent=&quot;1&quot;&gt;&lt;mxGeometry x=&quot;189.66885036813724&quot; y=&quot;367.0221565731167&quot; width=&quot;32.04047075192765&quot; height=&quot;19.02031019202363&quot; as=&quot;geometry&quot;/&gt;&lt;/mxCell&gt;&lt;mxCell id=&quot;56&quot; value=&quot;&quot; style=&quot;rounded=1;whiteSpace=wrap;html=1;fillColor=none;strokeWidth=2;glass=0;shadow=1;dashed=1;rotation=90;container=0;fontFamily=Times New Roman;&quot; vertex=&quot;1&quot; parent=&quot;1&quot;&gt;&lt;mxGeometry x=&quot;130.09419676502984&quot; y=&quot;388.19940915805023&quot; width=&quot;32.04047075192765&quot; height=&quot;19.02031019202363&quot; as=&quot;geometry&quot;/&gt;&lt;/mxCell&gt;&lt;mxCell id=&quot;57&quot; value=&quot;&quot; style=&quot;rounded=1;whiteSpace=wrap;html=1;fillColor=none;strokeWidth=2;glass=0;shadow=1;dashed=1;rotation=90;container=0;fontFamily=Times New Roman;&quot; vertex=&quot;1&quot; parent=&quot;1&quot;&gt;&lt;mxGeometry x=&quot;181.26729665487855&quot; y=&quot;336.4327917282127&quot; width=&quot;32.04047075192765&quot; height=&quot;19.02031019202363&quot; as=&quot;geometry&quot;/&gt;&lt;/mxCell&gt;&lt;mxCell id=&quot;58&quot; value=&quot;&quot; style=&quot;rounded=1;whiteSpace=wrap;html=1;fillColor=#f5f5f5;fontColor=#333333;strokeColor=#666666;strokeWidth=2;rotation=90;container=0;fontFamily=Times New Roman;&quot; vertex=&quot;1&quot; parent=&quot;1&quot;&gt;&lt;mxGeometry x=&quot;196.66885036813724&quot; y=&quot;586.4047267355982&quot; width=&quot;198.5821786770247&quot; height=&quot;172.55539143279174&quot; as=&quot;geometry&quot;/&gt;&lt;/mxCell&gt;&lt;mxCell id=&quot;59&quot; value=&quot;&quot; style=&quot;rounded=0;whiteSpace=wrap;html=1;fillColor=#d5e8d4;strokeColor=#82b366;container=0;rotation=90;fontFamily=Times New Roman;&quot; vertex=&quot;1&quot; parent=&quot;1&quot;&gt;&lt;mxGeometry x=&quot;354.0070380891645&quot; y=&quot;680.5258493353028&quot; width=&quot;22.730021682416364&quot; height=&quot;10.609466315586669&quot; as=&quot;geometry&quot;/&gt;&lt;/mxCell&gt;&lt;mxCell id=&quot;60&quot; value=&quot;&quot; style=&quot;rounded=0;whiteSpace=wrap;html=1;fillColor=#d5e8d4;strokeColor=#82b366;container=0;rotation=90;fontFamily=Times New Roman;&quot; vertex=&quot;1&quot; parent=&quot;1&quot;&gt;&lt;mxGeometry x=&quot;344.07792915531326&quot; y=&quot;680.5258493353028&quot; width=&quot;22.730021682416364&quot; height=&quot;10.609466315586669&quot; as=&quot;geometry&quot;/&gt;&lt;/mxCell&gt;&lt;mxCell id=&quot;61&quot; value=&quot;&quot; style=&quot;rounded=0;whiteSpace=wrap;html=1;fillColor=#d5e8d4;strokeColor=#82b366;container=0;rotation=90;fontFamily=Times New Roman;&quot; vertex=&quot;1&quot; parent=&quot;1&quot;&gt;&lt;mxGeometry x=&quot;333.3850426111658&quot; y=&quot;680.5258493353028&quot; width=&quot;22.730021682416364&quot; height=&quot;10.609466315586669&quot; as=&quot;geometry&quot;/&gt;&lt;/mxCell&gt;&lt;mxCell id=&quot;62&quot; value=&quot;&quot; style=&quot;rounded=0;whiteSpace=wrap;html=1;fillColor=#d5e8d4;strokeColor=#82b366;container=0;rotation=90;fontFamily=Times New Roman;&quot; vertex=&quot;1&quot; parent=&quot;1&quot;&gt;&lt;mxGeometry x=&quot;323.45593367731453&quot; y=&quot;680.5258493353028&quot; width=&quot;22.730021682416364&quot; height=&quot;10.609466315586669&quot; as=&quot;geometry&quot;/&gt;&lt;/mxCell&gt;&lt;mxCell id=&quot;63&quot; value=&quot;&quot; style=&quot;rounded=0;whiteSpace=wrap;html=1;fillColor=#d5e8d4;strokeColor=#82b366;container=0;rotation=90;fontFamily=Times New Roman;&quot; vertex=&quot;1&quot; parent=&quot;1&quot;&gt;&lt;mxGeometry x=&quot;308.1803814713896&quot; y=&quot;680.5258493353028&quot; width=&quot;22.730021682416364&quot; height=&quot;10.609466315586669&quot; as=&quot;geometry&quot;/&gt;&lt;/mxCell&gt;&lt;mxCell id=&quot;64&quot; value=&quot;&quot; style=&quot;rounded=0;whiteSpace=wrap;html=1;fillColor=#d5e8d4;strokeColor=#82b366;container=0;rotation=90;fontFamily=Times New Roman;&quot; vertex=&quot;1&quot; parent=&quot;1&quot;&gt;&lt;mxGeometry x=&quot;297.4874949272421&quot; y=&quot;680.5258493353028&quot; width=&quot;22.730021682416364&quot; height=&quot;10.609466315586669&quot; as=&quot;geometry&quot;/&gt;&lt;/mxCell&gt;&lt;mxCell id=&quot;65&quot; value=&quot;&quot; style=&quot;rounded=0;whiteSpace=wrap;html=1;fillColor=#d5e8d4;strokeColor=#82b366;container=0;rotation=90;fontFamily=Times New Roman;&quot; vertex=&quot;1&quot; parent=&quot;1&quot;&gt;&lt;mxGeometry x=&quot;287.55838599339086&quot; y=&quot;680.5258493353028&quot; width=&quot;22.730021682416364&quot; height=&quot;10.609466315586669&quot; as=&quot;geometry&quot;/&gt;&lt;/mxCell&gt;&lt;mxCell id=&quot;66&quot; value=&quot;&quot; style=&quot;rounded=0;whiteSpace=wrap;html=1;fillColor=#d5e8d4;strokeColor=#82b366;container=0;rotation=90;fontFamily=Times New Roman;&quot; vertex=&quot;1&quot; parent=&quot;1&quot;&gt;&lt;mxGeometry x=&quot;333.3850426111658&quot; y=&quot;711.8995568685376&quot; width=&quot;22.730021682416364&quot; height=&quot;10.609466315586669&quot; as=&quot;geometry&quot;/&gt;&lt;/mxCell&gt;&lt;mxCell id=&quot;67&quot; value=&quot;&quot; style=&quot;rounded=0;whiteSpace=wrap;html=1;fillColor=#d5e8d4;strokeColor=#82b366;container=0;rotation=90;fontFamily=Times New Roman;&quot; vertex=&quot;1&quot; parent=&quot;1&quot;&gt;&lt;mxGeometry x=&quot;323.45593367731453&quot; y=&quot;711.8995568685376&quot; width=&quot;22.730021682416364&quot; height=&quot;10.609466315586669&quot; as=&quot;geometry&quot;/&gt;&lt;/mxCell&gt;&lt;mxCell id=&quot;68&quot; value=&quot;&quot; style=&quot;rounded=0;whiteSpace=wrap;html=1;fillColor=#d5e8d4;strokeColor=#82b366;container=0;rotation=90;fontFamily=Times New Roman;&quot; vertex=&quot;1&quot; parent=&quot;1&quot;&gt;&lt;mxGeometry x=&quot;312.76304713316705&quot; y=&quot;711.8995568685376&quot; width=&quot;22.730021682416364&quot; height=&quot;10.609466315586669&quot; as=&quot;geometry&quot;/&gt;&lt;/mxCell&gt;&lt;mxCell id=&quot;69&quot; value=&quot;&quot; style=&quot;rounded=0;whiteSpace=wrap;html=1;fillColor=#d5e8d4;strokeColor=#82b366;container=0;rotation=90;fontFamily=Times New Roman;&quot; vertex=&quot;1&quot; parent=&quot;1&quot;&gt;&lt;mxGeometry x=&quot;293.6686068757609&quot; y=&quot;646.0147710487445&quot; width=&quot;22.730021682416364&quot; height=&quot;10.609466315586669&quot; as=&quot;geometry&quot;/&gt;&lt;/mxCell&gt;&lt;mxCell id=&quot;70&quot; value=&quot;&quot; style=&quot;rounded=0;whiteSpace=wrap;html=1;fillColor=#f8cecc;strokeColor=#b85450;container=0;rotation=90;fontFamily=Times New Roman;&quot; vertex=&quot;1&quot; parent=&quot;1&quot;&gt;&lt;mxGeometry x=&quot;263.88128007420715&quot; y=&quot;616.2097488921713&quot; width=&quot;22.730021682416364&quot; height=&quot;10.609466315586669&quot; as=&quot;geometry&quot;/&gt;&lt;/mxCell&gt;&lt;mxCell id=&quot;71&quot; value=&quot;&quot; style=&quot;rounded=0;whiteSpace=wrap;html=1;fillColor=#f8cecc;strokeColor=#b85450;container=0;rotation=90;fontFamily=Times New Roman;&quot; vertex=&quot;1&quot; parent=&quot;1&quot;&gt;&lt;mxGeometry x=&quot;253.18839353005967&quot; y=&quot;616.2097488921713&quot; width=&quot;22.730021682416364&quot; height=&quot;10.609466315586669&quot; as=&quot;geometry&quot;/&gt;&lt;/mxCell&gt;&lt;mxCell id=&quot;72&quot; value=&quot;&quot; style=&quot;rounded=0;whiteSpace=wrap;html=1;fillColor=#f8cecc;strokeColor=#b85450;container=0;rotation=90;fontFamily=Times New Roman;&quot; vertex=&quot;1&quot; parent=&quot;1&quot;&gt;&lt;mxGeometry x=&quot;243.25928459620843&quot; y=&quot;616.2097488921713&quot; width=&quot;22.730021682416364&quot; height=&quot;10.609466315586669&quot; as=&quot;geometry&quot;/&gt;&lt;/mxCell&gt;&lt;mxCell id=&quot;73&quot; value=&quot;&quot; style=&quot;rounded=0;whiteSpace=wrap;html=1;fillColor=#f8cecc;strokeColor=#b85450;container=0;rotation=90;fontFamily=Times New Roman;&quot; vertex=&quot;1&quot; parent=&quot;1&quot;&gt;&lt;mxGeometry x=&quot;232.56639805206095&quot; y=&quot;616.2097488921713&quot; width=&quot;22.730021682416364&quot; height=&quot;10.609466315586669&quot; as=&quot;geometry&quot;/&gt;&lt;/mxCell&gt;&lt;mxCell id=&quot;74&quot; value=&quot;&quot; style=&quot;rounded=0;whiteSpace=wrap;html=1;fillColor=#f8cecc;strokeColor=#b85450;container=0;rotation=90;fontFamily=Times New Roman;&quot; vertex=&quot;1&quot; parent=&quot;1&quot;&gt;&lt;mxGeometry x=&quot;245.5506174270972&quot; y=&quot;592.6794682422451&quot; width=&quot;22.730021682416364&quot; height=&quot;10.609466315586669&quot; as=&quot;geometry&quot;/&gt;&lt;/mxCell&gt;&lt;mxCell id=&quot;75&quot; value=&quot;&quot; style=&quot;rounded=0;whiteSpace=wrap;html=1;fillColor=#f8cecc;strokeColor=#b85450;container=0;rotation=90;fontFamily=Times New Roman;&quot; vertex=&quot;1&quot; parent=&quot;1&quot;&gt;&lt;mxGeometry x=&quot;222.63728911820974&quot; y=&quot;592.6794682422451&quot; width=&quot;22.730021682416364&quot; height=&quot;10.609466315586669&quot; as=&quot;geometry&quot;/&gt;&lt;/mxCell&gt;&lt;mxCell id=&quot;76&quot; value=&quot;&quot; style=&quot;rounded=0;whiteSpace=wrap;html=1;fillColor=#f8cecc;strokeColor=#b85450;container=0;rotation=90;fontFamily=Times New Roman;&quot; vertex=&quot;1&quot; parent=&quot;1&quot;&gt;&lt;mxGeometry x=&quot;219.5821786770247&quot; y=&quot;638.9556868537666&quot; width=&quot;22.730021682416364&quot; height=&quot;10.609466315586669&quot; as=&quot;geometry&quot;/&gt;&lt;/mxCell&gt;&lt;mxCell id=&quot;77&quot; value=&quot;&quot; style=&quot;rounded=0;whiteSpace=wrap;html=1;fillColor=#f8cecc;strokeColor=#b85450;container=0;rotation=90;fontFamily=Times New Roman;&quot; vertex=&quot;1&quot; parent=&quot;1&quot;&gt;&lt;mxGeometry x=&quot;243.25928459620843&quot; y=&quot;642.09305760709&quot; width=&quot;22.730021682416364&quot; height=&quot;10.609466315586669&quot; as=&quot;geometry&quot;/&gt;&lt;/mxCell&gt;&lt;mxCell id=&quot;78&quot; value=&quot;&quot; style=&quot;rounded=0;whiteSpace=wrap;html=1;fillColor=#f8cecc;strokeColor=#b85450;container=0;rotation=90;fontFamily=Times New Roman;&quot; vertex=&quot;1&quot; parent=&quot;1&quot;&gt;&lt;mxGeometry x=&quot;260.8261696330222&quot; y=&quot;642.09305760709&quot; width=&quot;22.730021682416364&quot; height=&quot;10.609466315586669&quot; as=&quot;geometry&quot;/&gt;&lt;/mxCell&gt;&lt;mxCell id=&quot;79&quot; value=&quot;&quot; style=&quot;rounded=0;whiteSpace=wrap;html=1;fillColor=#fff2cc;strokeColor=#d6b656;container=0;rotation=90;fontFamily=Times New Roman;&quot; vertex=&quot;1&quot; parent=&quot;1&quot;&gt;&lt;mxGeometry x=&quot;245.5506174270972&quot; y=&quot;680.5258493353028&quot; width=&quot;22.730021682416364&quot; height=&quot;10.609466315586669&quot; as=&quot;geometry&quot;/&gt;&lt;/mxCell&gt;&lt;mxCell id=&quot;80&quot; value=&quot;&quot; style=&quot;rounded=0;whiteSpace=wrap;html=1;fillColor=#f8cecc;strokeColor=#b85450;container=0;rotation=90;fontFamily=Times New Roman;&quot; vertex=&quot;1&quot; parent=&quot;1&quot;&gt;&lt;mxGeometry x=&quot;234.09395327265344&quot; y=&quot;667.192023633678&quot; width=&quot;22.730021682416364&quot; height=&quot;10.609466315586669&quot; as=&quot;geometry&quot;/&gt;&lt;/mxCell&gt;&lt;mxCell id=&quot;81&quot; value=&quot;&quot; style=&quot;rounded=0;whiteSpace=wrap;html=1;fillColor=#fff2cc;strokeColor=#d6b656;container=0;rotation=90;fontFamily=Times New Roman;&quot; vertex=&quot;1&quot; parent=&quot;1&quot;&gt;&lt;mxGeometry x=&quot;256.24350397124465&quot; y=&quot;704.0561299852288&quot; width=&quot;22.730021682416364&quot; height=&quot;10.609466315586669&quot; as=&quot;geometry&quot;/&gt;&lt;/mxCell&gt;&lt;mxCell id=&quot;82&quot; value=&quot;&quot; style=&quot;rounded=0;whiteSpace=wrap;html=1;fillColor=#d5e8d4;strokeColor=#82b366;container=0;rotation=90;fontFamily=Times New Roman;&quot; vertex=&quot;1&quot; parent=&quot;1&quot;&gt;&lt;mxGeometry x=&quot;302.83393819931587&quot; y=&quot;711.8995568685376&quot; width=&quot;22.730021682416364&quot; height=&quot;10.609466315586669&quot; as=&quot;geometry&quot;/&gt;&lt;/mxCell&gt;&lt;mxCell id=&quot;83&quot; value=&quot;&quot; style=&quot;rounded=0;whiteSpace=wrap;html=1;fillColor=#fff2cc;strokeColor=#d6b656;container=0;rotation=90;fontFamily=Times New Roman;&quot; vertex=&quot;1&quot; parent=&quot;1&quot;&gt;&lt;mxGeometry x=&quot;240.20417415502342&quot; y=&quot;704.0561299852288&quot; width=&quot;22.730021682416364&quot; height=&quot;10.609466315586669&quot; as=&quot;geometry&quot;/&gt;&lt;/mxCell&gt;&lt;mxCell id=&quot;84&quot; value=&quot;&quot; style=&quot;rounded=0;whiteSpace=wrap;html=1;fillColor=#f8cecc;strokeColor=#b85450;container=0;rotation=90;fontFamily=Times New Roman;&quot; vertex=&quot;1&quot; parent=&quot;1&quot;&gt;&lt;mxGeometry x=&quot;260.8261696330222&quot; y=&quot;587.1890694239291&quot; width=&quot;22.730021682416364&quot; height=&quot;10.609466315586669&quot; as=&quot;geometry&quot;/&gt;&lt;/mxCell&gt;&lt;mxCell id=&quot;85&quot; value=&quot;&quot; style=&quot;rounded=0;whiteSpace=wrap;html=1;fillColor=#f8cecc;strokeColor=#b85450;container=0;rotation=90;fontFamily=Times New Roman;&quot; vertex=&quot;1&quot; parent=&quot;1&quot;&gt;&lt;mxGeometry x=&quot;211.94440257406222&quot; y=&quot;592.6794682422451&quot; width=&quot;22.730021682416364&quot; height=&quot;10.609466315586669&quot; as=&quot;geometry&quot;/&gt;&lt;/mxCell&gt;&lt;mxCell id=&quot;86&quot; value=&quot;&quot; style=&quot;rounded=0;whiteSpace=wrap;html=1;fillColor=#fff2cc;strokeColor=#d6b656;container=0;rotation=90;fontFamily=Times New Roman;&quot; vertex=&quot;1&quot; parent=&quot;1&quot;&gt;&lt;mxGeometry x=&quot;260.8261696330222&quot; y=&quot;680.5258493353028&quot; width=&quot;22.730021682416364&quot; height=&quot;10.609466315586669&quot; as=&quot;geometry&quot;/&gt;&lt;/mxCell&gt;&lt;mxCell id=&quot;87&quot; value=&quot;&quot; style=&quot;rounded=0;whiteSpace=wrap;html=1;fillColor=#d5e8d4;strokeColor=#82b366;container=0;rotation=90;fontFamily=Times New Roman;&quot; vertex=&quot;1&quot; parent=&quot;1&quot;&gt;&lt;mxGeometry x=&quot;276.8654994492434&quot; y=&quot;704.0561299852288&quot; width=&quot;22.730021682416364&quot; height=&quot;10.609466315586669&quot; as=&quot;geometry&quot;/&gt;&lt;/mxCell&gt;&lt;mxCell id=&quot;88&quot; value=&quot;&quot; style=&quot;rounded=0;whiteSpace=wrap;html=1;fillColor=#fff2cc;strokeColor=#d6b656;container=0;rotation=90;fontFamily=Times New Roman;&quot; vertex=&quot;1&quot; parent=&quot;1&quot;&gt;&lt;mxGeometry x=&quot;230.2750652211722&quot; y=&quot;704.0561299852288&quot; width=&quot;22.730021682416364&quot; height=&quot;10.609466315586669&quot; as=&quot;geometry&quot;/&gt;&lt;/mxCell&gt;&lt;mxCell id=&quot;89&quot; value=&quot;&amp;lt;span style=&amp;quot;color: rgba(0, 0, 0, 0); font-size: 0px; text-align: start; text-wrap: nowrap;&amp;quot;&amp;gt;%3CmxGraphModel%3E%3Croot%3E%3CmxCell%20id%3D%220%22%2F%3E%3CmxCell%20id%3D%221%22%20parent%3D%220%22%2F%3E%3CmxCell%20id%3D%222%22%20value%3D%22%22%20style%3D%22rounded%3D0%3BwhiteSpace%3Dwrap%3Bhtml%3D1%3BfillColor%3D%23dae8fc%3BstrokeColor%3D%236c8ebf%3B%22%20vertex%3D%221%22%20parent%3D%221%22%3E%3CmxGeometry%20x%3D%22610%22%20y%3D%22480%22%20width%3D%2290%22%20height%3D%2240%22%20as%3D%22geometry%22%2F%3E%3C%2FmxCell%3E%3C%2Froot%3E%3C%2FmxGraphModel%3E&amp;lt;/span&amp;gt;&quot; style=&quot;rounded=0;whiteSpace=wrap;html=1;fillColor=#fff2cc;strokeColor=#d6b656;container=0;rotation=90;fontFamily=Times New Roman;&quot; vertex=&quot;1&quot; parent=&quot;1&quot;&gt;&lt;mxGeometry x=&quot;247.84195025798593&quot; y=&quot;729.9394387001478&quot; width=&quot;22.730021682416364&quot; height=&quot;10.609466315586669&quot; as=&quot;geometry&quot;/&gt;&lt;/mxCell&gt;&lt;mxCell id=&quot;90&quot; value=&quot;&amp;lt;span style=&amp;quot;color: rgba(0, 0, 0, 0); font-size: 0px; text-align: start; text-wrap: nowrap;&amp;quot;&amp;gt;%3CmxGraphModel%3E%3Croot%3E%3CmxCell%20id%3D%220%22%2F%3E%3CmxCell%20id%3D%221%22%20parent%3D%220%22%2F%3E%3CmxCell%20id%3D%222%22%20value%3D%22%22%20style%3D%22rounded%3D0%3BwhiteSpace%3Dwrap%3Bhtml%3D1%3BfillColor%3D%23dae8fc%3BstrokeColor%3D%236c8ebf%3B%22%20vertex%3D%221%22%20parent%3D%221%22%3E%3CmxGeometry%20x%3D%22610%22%20y%3D%22480%22%20width%3D%2290%22%20height%3D%2240%22%20as%3D%22geometry%22%2F%3E%3C%2FmxCell%3E%3C%2Froot%3E%3C%2FmxGraphModel%3E&amp;lt;/span&amp;gt;&quot; style=&quot;rounded=0;whiteSpace=wrap;html=1;fillColor=#fff2cc;strokeColor=#d6b656;container=0;rotation=90;fontFamily=Times New Roman;&quot; vertex=&quot;1&quot; parent=&quot;1&quot;&gt;&lt;mxGeometry x=&quot;237.9128413241347&quot; y=&quot;729.9394387001478&quot; width=&quot;22.730021682416364&quot; height=&quot;10.609466315586669&quot; as=&quot;geometry&quot;/&gt;&lt;/mxCell&gt;&lt;mxCell id=&quot;91&quot; value=&quot;&amp;lt;span style=&amp;quot;color: rgba(0, 0, 0, 0); font-size: 0px; text-align: start; text-wrap: nowrap;&amp;quot;&amp;gt;%3CmxGraphModel%3E%3Croot%3E%3CmxCell%20id%3D%220%22%2F%3E%3CmxCell%20id%3D%221%22%20parent%3D%220%22%2F%3E%3CmxCell%20id%3D%222%22%20value%3D%22%22%20style%3D%22rounded%3D0%3BwhiteSpace%3Dwrap%3Bhtml%3D1%3BfillColor%3D%23dae8fc%3BstrokeColor%3D%236c8ebf%3B%22%20vertex%3D%221%22%20parent%3D%221%22%3E%3CmxGeometry%20x%3D%22610%22%20y%3D%22480%22%20width%3D%2290%22%20height%3D%2240%22%20as%3D%22geometry%22%2F%3E%3C%2FmxCell%3E%3C%2Froot%3E%3C%2FmxGraphModel%3E&amp;lt;/span&amp;gt;&quot; style=&quot;rounded=0;whiteSpace=wrap;html=1;fillColor=#fff2cc;strokeColor=#d6b656;container=0;rotation=90;fontFamily=Times New Roman;&quot; vertex=&quot;1&quot; parent=&quot;1&quot;&gt;&lt;mxGeometry x=&quot;227.21995477998723&quot; y=&quot;729.9394387001478&quot; width=&quot;22.730021682416364&quot; height=&quot;10.609466315586669&quot; as=&quot;geometry&quot;/&gt;&lt;/mxCell&gt;&lt;mxCell id=&quot;92&quot; value=&quot;&amp;lt;span style=&amp;quot;color: rgba(0, 0, 0, 0); font-size: 0px; text-align: start; text-wrap: nowrap;&amp;quot;&amp;gt;%3CmxGraphModel%3E%3Croot%3E%3CmxCell%20id%3D%220%22%2F%3E%3CmxCell%20id%3D%221%22%20parent%3D%220%22%2F%3E%3CmxCell%20id%3D%222%22%20value%3D%22%22%20style%3D%22rounded%3D0%3BwhiteSpace%3Dwrap%3Bhtml%3D1%3BfillColor%3D%23dae8fc%3BstrokeColor%3D%236c8ebf%3B%22%20vertex%3D%221%22%20parent%3D%221%22%3E%3CmxGeometry%20x%3D%22610%22%20y%3D%22480%22%20width%3D%2290%22%20height%3D%2240%22%20as%3D%22geometry%22%2F%3E%3C%2FmxCell%3E%3C%2Froot%3E%3C%2FmxGraphModel%3E&amp;lt;/span&amp;gt;&quot; style=&quot;rounded=0;whiteSpace=wrap;html=1;fillColor=#fff2cc;strokeColor=#d6b656;container=0;rotation=90;fontFamily=Times New Roman;&quot; vertex=&quot;1&quot; parent=&quot;1&quot;&gt;&lt;mxGeometry x=&quot;217.29084584613594&quot; y=&quot;729.9394387001478&quot; width=&quot;22.730021682416364&quot; height=&quot;10.609466315586669&quot; as=&quot;geometry&quot;/&gt;&lt;/mxCell&gt;&lt;mxCell id=&quot;93&quot; value=&quot;&amp;lt;span style=&amp;quot;color: rgba(0, 0, 0, 0); font-size: 0px; text-align: start; text-wrap: nowrap;&amp;quot;&amp;gt;%3CmxGraphModel%3E%3Croot%3E%3CmxCell%20id%3D%220%22%2F%3E%3CmxCell%20id%3D%221%22%20parent%3D%220%22%2F%3E%3CmxCell%20id%3D%222%22%20value%3D%22%22%20style%3D%22rounded%3D0%3BwhiteSpace%3Dwrap%3Bhtml%3D1%3BfillColor%3D%23dae8fc%3BstrokeColor%3D%236c8ebf%3B%22%20vertex%3D%221%22%20parent%3D%221%22%3E%3CmxGeometry%20x%3D%22610%22%20y%3D%22480%22%20width%3D%2290%22%20height%3D%2240%22%20as%3D%22geometry%22%2F%3E%3C%2FmxCell%3E%3C%2Froot%3E%3C%2FmxGraphModel%3E&amp;lt;/span&amp;gt;&quot; style=&quot;rounded=0;whiteSpace=wrap;html=1;fillColor=#fff2cc;strokeColor=#d6b656;container=0;rotation=90;fontFamily=Times New Roman;&quot; vertex=&quot;1&quot; parent=&quot;1&quot;&gt;&lt;mxGeometry x=&quot;211.94440257406222&quot; y=&quot;704.0561299852288&quot; width=&quot;22.730021682416364&quot; height=&quot;10.609466315586669&quot; as=&quot;geometry&quot;/&gt;&lt;/mxCell&gt;&lt;mxCell id=&quot;94&quot; value=&quot;&amp;lt;span style=&amp;quot;color: rgba(0, 0, 0, 0); font-size: 0px; text-align: start; text-wrap: nowrap;&amp;quot;&amp;gt;%3CmxGraphModel%3E%3Croot%3E%3CmxCell%20id%3D%220%22%2F%3E%3CmxCell%20id%3D%221%22%20parent%3D%220%22%2F%3E%3CmxCell%20id%3D%222%22%20value%3D%22%22%20style%3D%22rounded%3D0%3BwhiteSpace%3Dwrap%3Bhtml%3D1%3BfillColor%3D%23dae8fc%3BstrokeColor%3D%236c8ebf%3B%22%20vertex%3D%221%22%20parent%3D%221%22%3E%3CmxGeometry%20x%3D%22610%22%20y%3D%22480%22%20width%3D%2290%22%20height%3D%2240%22%20as%3D%22geometry%22%2F%3E%3C%2FmxCell%3E%3C%2Froot%3E%3C%2FmxGraphModel%3E&amp;lt;/span&amp;gt;&quot; style=&quot;rounded=0;whiteSpace=wrap;html=1;fillColor=#fff2cc;strokeColor=#d6b656;container=0;rotation=90;fontFamily=Times New Roman;&quot; vertex=&quot;1&quot; parent=&quot;1&quot;&gt;&lt;mxGeometry x=&quot;237.9128413241347&quot; y=&quot;753.4697193500738&quot; width=&quot;22.730021682416364&quot; height=&quot;10.609466315586669&quot; as=&quot;geometry&quot;/&gt;&lt;/mxCell&gt;&lt;mxCell id=&quot;95&quot; value=&quot;&quot; style=&quot;endArrow=none;dashed=1;html=1;rounded=0;strokeWidth=3;strokeColor=none;fillColor=#f8cecc;fontFamily=Times New Roman;&quot; edge=&quot;1&quot; parent=&quot;1&quot;&gt;&lt;mxGeometry width=&quot;50&quot; height=&quot;50&quot; relative=&quot;1&quot; as=&quot;geometry&quot;&gt;&lt;mxPoint x=&quot;282.9757203316134&quot; y=&quot;638.1713441654358&quot; as=&quot;sourcePoint&quot;/&gt;&lt;mxPoint x=&quot;282.9757203316134&quot; y=&quot;575.423929098966&quot; as=&quot;targetPoint&quot;/&gt;&lt;/mxGeometry&gt;&lt;/mxCell&gt;&lt;mxCell id=&quot;96&quot; value=&quot;&quot; style=&quot;rounded=0;whiteSpace=wrap;html=1;fillColor=#dae8fc;strokeColor=#6c8ebf;container=0;rotation=90;fontFamily=Times New Roman;&quot; vertex=&quot;1&quot; parent=&quot;1&quot;&gt;&lt;mxGeometry x=&quot;344.07792915531326&quot; y=&quot;587.1890694239291&quot; width=&quot;22.730021682416364&quot; height=&quot;10.609466315586669&quot; as=&quot;geometry&quot;/&gt;&lt;/mxCell&gt;&lt;mxCell id=&quot;97&quot; value=&quot;&quot; style=&quot;rounded=0;whiteSpace=wrap;html=1;fillColor=#dae8fc;strokeColor=#6c8ebf;container=0;rotation=90;fontFamily=Times New Roman;&quot; vertex=&quot;1&quot; parent=&quot;1&quot;&gt;&lt;mxGeometry x=&quot;333.3850426111658&quot; y=&quot;587.1890694239291&quot; width=&quot;22.730021682416364&quot; height=&quot;10.609466315586669&quot; as=&quot;geometry&quot;/&gt;&lt;/mxCell&gt;&lt;mxCell id=&quot;98&quot; value=&quot;&quot; style=&quot;rounded=0;whiteSpace=wrap;html=1;fillColor=#dae8fc;strokeColor=#6c8ebf;container=0;rotation=90;fontFamily=Times New Roman;&quot; vertex=&quot;1&quot; parent=&quot;1&quot;&gt;&lt;mxGeometry x=&quot;354.0070380891645&quot; y=&quot;616.2097488921713&quot; width=&quot;22.730021682416364&quot; height=&quot;10.609466315586669&quot; as=&quot;geometry&quot;/&gt;&lt;/mxCell&gt;&lt;mxCell id=&quot;99&quot; value=&quot;&quot; style=&quot;rounded=0;whiteSpace=wrap;html=1;fillColor=#dae8fc;strokeColor=#6c8ebf;container=0;rotation=90;fontFamily=Times New Roman;&quot; vertex=&quot;1&quot; parent=&quot;1&quot;&gt;&lt;mxGeometry x=&quot;344.07792915531326&quot; y=&quot;616.2097488921713&quot; width=&quot;22.730021682416364&quot; height=&quot;10.609466315586669&quot; as=&quot;geometry&quot;/&gt;&lt;/mxCell&gt;&lt;mxCell id=&quot;100&quot; value=&quot;&quot; style=&quot;rounded=0;whiteSpace=wrap;html=1;fillColor=#dae8fc;strokeColor=#6c8ebf;container=0;rotation=90;fontFamily=Times New Roman;&quot; vertex=&quot;1&quot; parent=&quot;1&quot;&gt;&lt;mxGeometry x=&quot;323.45593367731453&quot; y=&quot;587.1890694239291&quot; width=&quot;22.730021682416364&quot; height=&quot;10.609466315586669&quot; as=&quot;geometry&quot;/&gt;&lt;/mxCell&gt;&lt;mxCell id=&quot;101&quot; value=&quot;&quot; style=&quot;rounded=0;whiteSpace=wrap;html=1;fillColor=#dae8fc;strokeColor=#6c8ebf;container=0;rotation=90;fontFamily=Times New Roman;&quot; vertex=&quot;1&quot; parent=&quot;1&quot;&gt;&lt;mxGeometry x=&quot;325.7472665082033&quot; y=&quot;616.2097488921713&quot; width=&quot;22.730021682416364&quot; height=&quot;10.609466315586669&quot; as=&quot;geometry&quot;/&gt;&lt;/mxCell&gt;&lt;mxCell id=&quot;102&quot; value=&quot;&quot; style=&quot;rounded=0;whiteSpace=wrap;html=1;fillColor=#dae8fc;strokeColor=#6c8ebf;container=0;rotation=90;fontFamily=Times New Roman;&quot; vertex=&quot;1&quot; parent=&quot;1&quot;&gt;&lt;mxGeometry x=&quot;305.1252710302046&quot; y=&quot;616.2097488921713&quot; width=&quot;22.730021682416364&quot; height=&quot;10.609466315586669&quot; as=&quot;geometry&quot;/&gt;&lt;/mxCell&gt;&lt;mxCell id=&quot;103&quot; value=&quot;&quot; style=&quot;rounded=0;whiteSpace=wrap;html=1;fillColor=#dae8fc;strokeColor=#6c8ebf;container=0;rotation=90;fontFamily=Times New Roman;&quot; vertex=&quot;1&quot; parent=&quot;1&quot;&gt;&lt;mxGeometry x=&quot;295.1961620963534&quot; y=&quot;616.2097488921713&quot; width=&quot;22.730021682416364&quot; height=&quot;10.609466315586669&quot; as=&quot;geometry&quot;/&gt;&lt;/mxCell&gt;&lt;mxCell id=&quot;104&quot; value=&quot;&quot; style=&quot;rounded=0;whiteSpace=wrap;html=1;fillColor=#dae8fc;strokeColor=#6c8ebf;container=0;rotation=90;fontFamily=Times New Roman;&quot; vertex=&quot;1&quot; parent=&quot;1&quot;&gt;&lt;mxGeometry x=&quot;305.1252710302046&quot; y=&quot;587.1890694239291&quot; width=&quot;22.730021682416364&quot; height=&quot;10.609466315586669&quot; as=&quot;geometry&quot;/&gt;&lt;/mxCell&gt;&lt;mxCell id=&quot;105&quot; value=&quot;&quot; style=&quot;rounded=0;whiteSpace=wrap;html=1;fillColor=#dae8fc;strokeColor=#6c8ebf;container=0;rotation=90;fontFamily=Times New Roman;&quot; vertex=&quot;1&quot; parent=&quot;1&quot;&gt;&lt;mxGeometry x=&quot;315.8181575743521&quot; y=&quot;616.2097488921713&quot; width=&quot;22.730021682416364&quot; height=&quot;10.609466315586669&quot; as=&quot;geometry&quot;/&gt;&lt;/mxCell&gt;&lt;mxCell id=&quot;106&quot; value=&quot;&quot; style=&quot;rounded=0;whiteSpace=wrap;html=1;fillColor=#dae8fc;strokeColor=#6c8ebf;container=0;rotation=90;fontFamily=Times New Roman;&quot; vertex=&quot;1&quot; parent=&quot;1&quot;&gt;&lt;mxGeometry x=&quot;284.5032755522059&quot; y=&quot;616.2097488921713&quot; width=&quot;22.730021682416364&quot; height=&quot;10.609466315586669&quot; as=&quot;geometry&quot;/&gt;&lt;/mxCell&gt;&lt;mxCell id=&quot;107&quot; value=&quot;&quot; style=&quot;rounded=0;whiteSpace=wrap;html=1;fillColor=#dae8fc;strokeColor=#6c8ebf;container=0;rotation=90;fontFamily=Times New Roman;&quot; vertex=&quot;1&quot; parent=&quot;1&quot;&gt;&lt;mxGeometry x=&quot;295.1961620963534&quot; y=&quot;587.1890694239291&quot; width=&quot;22.730021682416364&quot; height=&quot;10.609466315586669&quot; as=&quot;geometry&quot;/&gt;&lt;/mxCell&gt;&lt;mxCell id=&quot;108&quot; value=&quot;&quot; style=&quot;rounded=1;whiteSpace=wrap;html=1;fillColor=none;strokeWidth=2;glass=0;shadow=1;dashed=1;rotation=90;container=0;fontFamily=Times New Roman;&quot; vertex=&quot;1&quot; parent=&quot;1&quot;&gt;&lt;mxGeometry x=&quot;289.08594121398335&quot; y=&quot;642.09305760709&quot; width=&quot;32.04047075192765&quot; height=&quot;19.02031019202363&quot; as=&quot;geometry&quot;/&gt;&lt;/mxCell&gt;&lt;mxCell id=&quot;109&quot; value=&quot;&quot; style=&quot;rounded=1;whiteSpace=wrap;html=1;fillColor=none;strokeWidth=2;glass=0;shadow=1;dashed=1;rotation=90;container=0;fontFamily=Times New Roman;&quot; vertex=&quot;1&quot; parent=&quot;1&quot;&gt;&lt;mxGeometry x=&quot;229.51128761087594&quot; y=&quot;663.2703101920235&quot; width=&quot;32.04047075192765&quot; height=&quot;19.02031019202363&quot; as=&quot;geometry&quot;/&gt;&lt;/mxCell&gt;&lt;mxCell id=&quot;110&quot; value=&quot;&quot; style=&quot;rounded=1;whiteSpace=wrap;html=1;fillColor=#f5f5f5;strokeWidth=2;fontColor=#333333;strokeColor=#666666;rotation=90;container=0;fontFamily=Times New Roman;&quot; vertex=&quot;1&quot; parent=&quot;1&quot;&gt;&lt;mxGeometry x=&quot;10.72444779407502&quot; y=&quot;588.7577548005909&quot; width=&quot;198.5821786770247&quot; height=&quot;172.55539143279174&quot; as=&quot;geometry&quot;/&gt;&lt;/mxCell&gt;&lt;mxCell id=&quot;111&quot; value=&quot;&quot; style=&quot;rounded=0;whiteSpace=wrap;html=1;fillColor=#d5e8d4;strokeColor=#82b366;container=0;rotation=90;fontFamily=Times New Roman;&quot; vertex=&quot;1&quot; parent=&quot;1&quot;&gt;&lt;mxGeometry x=&quot;168.0626355151023&quot; y=&quot;680.5258493353028&quot; width=&quot;22.730021682416364&quot; height=&quot;10.609466315586669&quot; as=&quot;geometry&quot;/&gt;&lt;/mxCell&gt;&lt;mxCell id=&quot;112&quot; value=&quot;&quot; style=&quot;rounded=0;whiteSpace=wrap;html=1;fillColor=#d5e8d4;strokeColor=#82b366;container=0;rotation=90;fontFamily=Times New Roman;&quot; vertex=&quot;1&quot; parent=&quot;1&quot;&gt;&lt;mxGeometry x=&quot;158.13352658125103&quot; y=&quot;680.5258493353028&quot; width=&quot;22.730021682416364&quot; height=&quot;10.609466315586669&quot; as=&quot;geometry&quot;/&gt;&lt;/mxCell&gt;&lt;mxCell id=&quot;113&quot; value=&quot;&quot; style=&quot;rounded=0;whiteSpace=wrap;html=1;fillColor=#d5e8d4;strokeColor=#82b366;container=0;rotation=90;fontFamily=Times New Roman;&quot; vertex=&quot;1&quot; parent=&quot;1&quot;&gt;&lt;mxGeometry x=&quot;147.44064003710358&quot; y=&quot;680.5258493353028&quot; width=&quot;22.730021682416364&quot; height=&quot;10.609466315586669&quot; as=&quot;geometry&quot;/&gt;&lt;/mxCell&gt;&lt;mxCell id=&quot;114&quot; value=&quot;&quot; style=&quot;rounded=0;whiteSpace=wrap;html=1;fillColor=#d5e8d4;strokeColor=#82b366;container=0;rotation=90;fontFamily=Times New Roman;&quot; vertex=&quot;1&quot; parent=&quot;1&quot;&gt;&lt;mxGeometry x=&quot;137.51153110325237&quot; y=&quot;680.5258493353028&quot; width=&quot;22.730021682416364&quot; height=&quot;10.609466315586669&quot; as=&quot;geometry&quot;/&gt;&lt;/mxCell&gt;&lt;mxCell id=&quot;115&quot; value=&quot;&quot; style=&quot;rounded=0;whiteSpace=wrap;html=1;fillColor=#d5e8d4;strokeColor=#82b366;container=0;rotation=90;fontFamily=Times New Roman;&quot; vertex=&quot;1&quot; parent=&quot;1&quot;&gt;&lt;mxGeometry x=&quot;122.23597889732739&quot; y=&quot;680.5258493353028&quot; width=&quot;22.730021682416364&quot; height=&quot;10.609466315586669&quot; as=&quot;geometry&quot;/&gt;&lt;/mxCell&gt;&lt;mxCell id=&quot;116&quot; value=&quot;&quot; style=&quot;rounded=0;whiteSpace=wrap;html=1;fillColor=#d5e8d4;strokeColor=#82b366;container=0;rotation=90;fontFamily=Times New Roman;&quot; vertex=&quot;1&quot; parent=&quot;1&quot;&gt;&lt;mxGeometry x=&quot;111.54309235317987&quot; y=&quot;680.5258493353028&quot; width=&quot;22.730021682416364&quot; height=&quot;10.609466315586669&quot; as=&quot;geometry&quot;/&gt;&lt;/mxCell&gt;&lt;mxCell id=&quot;117&quot; value=&quot;&quot; style=&quot;rounded=0;whiteSpace=wrap;html=1;fillColor=#d5e8d4;strokeColor=#82b366;container=0;rotation=90;fontFamily=Times New Roman;&quot; vertex=&quot;1&quot; parent=&quot;1&quot;&gt;&lt;mxGeometry x=&quot;101.61398341932863&quot; y=&quot;680.5258493353028&quot; width=&quot;22.730021682416364&quot; height=&quot;10.609466315586669&quot; as=&quot;geometry&quot;/&gt;&lt;/mxCell&gt;&lt;mxCell id=&quot;118&quot; value=&quot;&quot; style=&quot;rounded=0;whiteSpace=wrap;html=1;fillColor=#d5e8d4;strokeColor=#82b366;container=0;rotation=90;fontFamily=Times New Roman;&quot; vertex=&quot;1&quot; parent=&quot;1&quot;&gt;&lt;mxGeometry x=&quot;147.44064003710358&quot; y=&quot;711.8995568685376&quot; width=&quot;22.730021682416364&quot; height=&quot;10.609466315586669&quot; as=&quot;geometry&quot;/&gt;&lt;/mxCell&gt;&lt;mxCell id=&quot;119&quot; value=&quot;&quot; style=&quot;rounded=0;whiteSpace=wrap;html=1;fillColor=#d5e8d4;strokeColor=#82b366;container=0;rotation=90;fontFamily=Times New Roman;&quot; vertex=&quot;1&quot; parent=&quot;1&quot;&gt;&lt;mxGeometry x=&quot;137.51153110325237&quot; y=&quot;711.8995568685376&quot; width=&quot;22.730021682416364&quot; height=&quot;10.609466315586669&quot; as=&quot;geometry&quot;/&gt;&lt;/mxCell&gt;&lt;mxCell id=&quot;120&quot; value=&quot;&quot; style=&quot;rounded=0;whiteSpace=wrap;html=1;fillColor=#d5e8d4;strokeColor=#82b366;container=0;rotation=90;fontFamily=Times New Roman;&quot; vertex=&quot;1&quot; parent=&quot;1&quot;&gt;&lt;mxGeometry x=&quot;126.81864455910488&quot; y=&quot;711.8995568685376&quot; width=&quot;22.730021682416364&quot; height=&quot;10.609466315586669&quot; as=&quot;geometry&quot;/&gt;&lt;/mxCell&gt;&lt;mxCell id=&quot;121&quot; value=&quot;&quot; style=&quot;rounded=0;whiteSpace=wrap;html=1;fillColor=#dae8fc;strokeColor=#6c8ebf;container=0;rotation=90;fontFamily=Times New Roman;&quot; vertex=&quot;1&quot; parent=&quot;1&quot;&gt;&lt;mxGeometry x=&quot;107.72420430169865&quot; y=&quot;646.0147710487445&quot; width=&quot;22.730021682416364&quot; height=&quot;10.609466315586669&quot; as=&quot;geometry&quot;/&gt;&lt;/mxCell&gt;&lt;mxCell id=&quot;122&quot; value=&quot;&quot; style=&quot;rounded=0;whiteSpace=wrap;html=1;fillColor=#f8cecc;strokeColor=#b85450;container=0;rotation=90;fontFamily=Times New Roman;&quot; vertex=&quot;1&quot; parent=&quot;1&quot;&gt;&lt;mxGeometry x=&quot;77.93687750014493&quot; y=&quot;616.2097488921713&quot; width=&quot;22.730021682416364&quot; height=&quot;10.609466315586669&quot; as=&quot;geometry&quot;/&gt;&lt;/mxCell&gt;&lt;mxCell id=&quot;123&quot; value=&quot;&quot; style=&quot;rounded=0;whiteSpace=wrap;html=1;fillColor=#f8cecc;strokeColor=#b85450;container=0;rotation=90;fontFamily=Times New Roman;&quot; vertex=&quot;1&quot; parent=&quot;1&quot;&gt;&lt;mxGeometry x=&quot;67.24399095599745&quot; y=&quot;616.2097488921713&quot; width=&quot;22.730021682416364&quot; height=&quot;10.609466315586669&quot; as=&quot;geometry&quot;/&gt;&lt;/mxCell&gt;&lt;mxCell id=&quot;124&quot; value=&quot;&quot; style=&quot;rounded=0;whiteSpace=wrap;html=1;fillColor=#f8cecc;strokeColor=#b85450;container=0;rotation=90;fontFamily=Times New Roman;&quot; vertex=&quot;1&quot; parent=&quot;1&quot;&gt;&lt;mxGeometry x=&quot;57.31488202214621&quot; y=&quot;616.2097488921713&quot; width=&quot;22.730021682416364&quot; height=&quot;10.609466315586669&quot; as=&quot;geometry&quot;/&gt;&lt;/mxCell&gt;&lt;mxCell id=&quot;125&quot; value=&quot;&quot; style=&quot;rounded=0;whiteSpace=wrap;html=1;fillColor=#f8cecc;strokeColor=#b85450;container=0;rotation=90;fontFamily=Times New Roman;&quot; vertex=&quot;1&quot; parent=&quot;1&quot;&gt;&lt;mxGeometry x=&quot;46.62199547799872&quot; y=&quot;616.2097488921713&quot; width=&quot;22.730021682416364&quot; height=&quot;10.609466315586669&quot; as=&quot;geometry&quot;/&gt;&lt;/mxCell&gt;&lt;mxCell id=&quot;126&quot; value=&quot;&quot; style=&quot;rounded=0;whiteSpace=wrap;html=1;fillColor=#f8cecc;strokeColor=#b85450;container=0;rotation=90;fontFamily=Times New Roman;&quot; vertex=&quot;1&quot; parent=&quot;1&quot;&gt;&lt;mxGeometry x=&quot;59.60621485303494&quot; y=&quot;592.6794682422451&quot; width=&quot;22.730021682416364&quot; height=&quot;10.609466315586669&quot; as=&quot;geometry&quot;/&gt;&lt;/mxCell&gt;&lt;mxCell id=&quot;127&quot; value=&quot;&quot; style=&quot;rounded=0;whiteSpace=wrap;html=1;fillColor=#f8cecc;strokeColor=#b85450;container=0;rotation=90;fontFamily=Times New Roman;&quot; vertex=&quot;1&quot; parent=&quot;1&quot;&gt;&lt;mxGeometry x=&quot;36.692886544147484&quot; y=&quot;592.6794682422451&quot; width=&quot;22.730021682416364&quot; height=&quot;10.609466315586669&quot; as=&quot;geometry&quot;/&gt;&lt;/mxCell&gt;&lt;mxCell id=&quot;128&quot; value=&quot;&quot; style=&quot;rounded=0;whiteSpace=wrap;html=1;fillColor=#f8cecc;strokeColor=#b85450;container=0;rotation=90;fontFamily=Times New Roman;&quot; vertex=&quot;1&quot; parent=&quot;1&quot;&gt;&lt;mxGeometry x=&quot;33.63777610296249&quot; y=&quot;638.9556868537666&quot; width=&quot;22.730021682416364&quot; height=&quot;10.609466315586669&quot; as=&quot;geometry&quot;/&gt;&lt;/mxCell&gt;&lt;mxCell id=&quot;129&quot; value=&quot;&quot; style=&quot;rounded=0;whiteSpace=wrap;html=1;fillColor=#f8cecc;strokeColor=#b85450;container=0;rotation=90;fontFamily=Times New Roman;&quot; vertex=&quot;1&quot; parent=&quot;1&quot;&gt;&lt;mxGeometry x=&quot;57.31488202214621&quot; y=&quot;642.09305760709&quot; width=&quot;22.730021682416364&quot; height=&quot;10.609466315586669&quot; as=&quot;geometry&quot;/&gt;&lt;/mxCell&gt;&lt;mxCell id=&quot;130&quot; value=&quot;&quot; style=&quot;rounded=0;whiteSpace=wrap;html=1;fillColor=#f8cecc;strokeColor=#b85450;container=0;rotation=90;fontFamily=Times New Roman;&quot; vertex=&quot;1&quot; parent=&quot;1&quot;&gt;&lt;mxGeometry x=&quot;74.88176705895992&quot; y=&quot;642.09305760709&quot; width=&quot;22.730021682416364&quot; height=&quot;10.609466315586669&quot; as=&quot;geometry&quot;/&gt;&lt;/mxCell&gt;&lt;mxCell id=&quot;131&quot; value=&quot;&quot; style=&quot;rounded=0;whiteSpace=wrap;html=1;fillColor=#fff2cc;strokeColor=#d6b656;container=0;rotation=90;fontFamily=Times New Roman;&quot; vertex=&quot;1&quot; parent=&quot;1&quot;&gt;&lt;mxGeometry x=&quot;59.60621485303494&quot; y=&quot;680.5258493353028&quot; width=&quot;22.730021682416364&quot; height=&quot;10.609466315586669&quot; as=&quot;geometry&quot;/&gt;&lt;/mxCell&gt;&lt;mxCell id=&quot;132&quot; value=&quot;&quot; style=&quot;rounded=0;whiteSpace=wrap;html=1;fillColor=#fff2cc;strokeColor=#d6b656;container=0;rotation=90;fontFamily=Times New Roman;&quot; vertex=&quot;1&quot; parent=&quot;1&quot;&gt;&lt;mxGeometry x=&quot;48.14955069859121&quot; y=&quot;666.4076809453472&quot; width=&quot;22.730021682416364&quot; height=&quot;10.609466315586669&quot; as=&quot;geometry&quot;/&gt;&lt;/mxCell&gt;&lt;mxCell id=&quot;133&quot; value=&quot;&quot; style=&quot;rounded=0;whiteSpace=wrap;html=1;fillColor=#fff2cc;strokeColor=#d6b656;container=0;rotation=90;fontFamily=Times New Roman;&quot; vertex=&quot;1&quot; parent=&quot;1&quot;&gt;&lt;mxGeometry x=&quot;70.29910139718243&quot; y=&quot;704.0561299852288&quot; width=&quot;22.730021682416364&quot; height=&quot;10.609466315586669&quot; as=&quot;geometry&quot;/&gt;&lt;/mxCell&gt;&lt;mxCell id=&quot;134&quot; value=&quot;&quot; style=&quot;rounded=0;whiteSpace=wrap;html=1;fillColor=#d5e8d4;strokeColor=#82b366;container=0;rotation=90;fontFamily=Times New Roman;&quot; vertex=&quot;1&quot; parent=&quot;1&quot;&gt;&lt;mxGeometry x=&quot;116.88953562525361&quot; y=&quot;711.8995568685376&quot; width=&quot;22.730021682416364&quot; height=&quot;10.609466315586669&quot; as=&quot;geometry&quot;/&gt;&lt;/mxCell&gt;&lt;mxCell id=&quot;135&quot; value=&quot;&quot; style=&quot;rounded=0;whiteSpace=wrap;html=1;fillColor=#fff2cc;strokeColor=#d6b656;container=0;rotation=90;fontFamily=Times New Roman;&quot; vertex=&quot;1&quot; parent=&quot;1&quot;&gt;&lt;mxGeometry x=&quot;54.259771580961214&quot; y=&quot;704.0561299852288&quot; width=&quot;22.730021682416364&quot; height=&quot;10.609466315586669&quot; as=&quot;geometry&quot;/&gt;&lt;/mxCell&gt;&lt;mxCell id=&quot;136&quot; value=&quot;&quot; style=&quot;rounded=0;whiteSpace=wrap;html=1;fillColor=#f8cecc;strokeColor=#b85450;container=0;rotation=90;fontFamily=Times New Roman;&quot; vertex=&quot;1&quot; parent=&quot;1&quot;&gt;&lt;mxGeometry x=&quot;74.88176705895992&quot; y=&quot;587.1890694239291&quot; width=&quot;22.730021682416364&quot; height=&quot;10.609466315586669&quot; as=&quot;geometry&quot;/&gt;&lt;/mxCell&gt;&lt;mxCell id=&quot;137&quot; value=&quot;&quot; style=&quot;rounded=0;whiteSpace=wrap;html=1;fillColor=#f8cecc;strokeColor=#b85450;container=0;rotation=90;fontFamily=Times New Roman;&quot; vertex=&quot;1&quot; parent=&quot;1&quot;&gt;&lt;mxGeometry x=&quot;26&quot; y=&quot;592.6794682422451&quot; width=&quot;22.730021682416364&quot; height=&quot;10.609466315586669&quot; as=&quot;geometry&quot;/&gt;&lt;/mxCell&gt;&lt;mxCell id=&quot;138&quot; value=&quot;&quot; style=&quot;rounded=0;whiteSpace=wrap;html=1;fillColor=#fff2cc;strokeColor=#d6b656;container=0;rotation=90;fontFamily=Times New Roman;&quot; vertex=&quot;1&quot; parent=&quot;1&quot;&gt;&lt;mxGeometry x=&quot;74.88176705895992&quot; y=&quot;680.5258493353028&quot; width=&quot;22.730021682416364&quot; height=&quot;10.609466315586669&quot; as=&quot;geometry&quot;/&gt;&lt;/mxCell&gt;&lt;mxCell id=&quot;139&quot; value=&quot;&quot; style=&quot;rounded=0;whiteSpace=wrap;html=1;fillColor=#d5e8d4;strokeColor=#82b366;container=0;rotation=90;fontFamily=Times New Roman;&quot; vertex=&quot;1&quot; parent=&quot;1&quot;&gt;&lt;mxGeometry x=&quot;90.92109687518115&quot; y=&quot;704.0561299852288&quot; width=&quot;22.730021682416364&quot; height=&quot;10.609466315586669&quot; as=&quot;geometry&quot;/&gt;&lt;/mxCell&gt;&lt;mxCell id=&quot;140&quot; value=&quot;&quot; style=&quot;rounded=0;whiteSpace=wrap;html=1;fillColor=#fff2cc;strokeColor=#d6b656;container=0;rotation=90;fontFamily=Times New Roman;&quot; vertex=&quot;1&quot; parent=&quot;1&quot;&gt;&lt;mxGeometry x=&quot;44.330662647109975&quot; y=&quot;704.0561299852288&quot; width=&quot;22.730021682416364&quot; height=&quot;10.609466315586669&quot; as=&quot;geometry&quot;/&gt;&lt;/mxCell&gt;&lt;mxCell id=&quot;141&quot; value=&quot;&amp;lt;span style=&amp;quot;color: rgba(0, 0, 0, 0); font-size: 0px; text-align: start; text-wrap: nowrap;&amp;quot;&amp;gt;%3CmxGraphModel%3E%3Croot%3E%3CmxCell%20id%3D%220%22%2F%3E%3CmxCell%20id%3D%221%22%20parent%3D%220%22%2F%3E%3CmxCell%20id%3D%222%22%20value%3D%22%22%20style%3D%22rounded%3D0%3BwhiteSpace%3Dwrap%3Bhtml%3D1%3BfillColor%3D%23dae8fc%3BstrokeColor%3D%236c8ebf%3B%22%20vertex%3D%221%22%20parent%3D%221%22%3E%3CmxGeometry%20x%3D%22610%22%20y%3D%22480%22%20width%3D%2290%22%20height%3D%2240%22%20as%3D%22geometry%22%2F%3E%3C%2FmxCell%3E%3C%2Froot%3E%3C%2FmxGraphModel%3E&amp;lt;/span&amp;gt;&quot; style=&quot;rounded=0;whiteSpace=wrap;html=1;fillColor=#fff2cc;strokeColor=#d6b656;container=0;rotation=90;fontFamily=Times New Roman;&quot; vertex=&quot;1&quot; parent=&quot;1&quot;&gt;&lt;mxGeometry x=&quot;61.897547683923705&quot; y=&quot;729.9394387001478&quot; width=&quot;22.730021682416364&quot; height=&quot;10.609466315586669&quot; as=&quot;geometry&quot;/&gt;&lt;/mxCell&gt;&lt;mxCell id=&quot;142&quot; value=&quot;&amp;lt;span style=&amp;quot;color: rgba(0, 0, 0, 0); font-size: 0px; text-align: start; text-wrap: nowrap;&amp;quot;&amp;gt;%3CmxGraphModel%3E%3Croot%3E%3CmxCell%20id%3D%220%22%2F%3E%3CmxCell%20id%3D%221%22%20parent%3D%220%22%2F%3E%3CmxCell%20id%3D%222%22%20value%3D%22%22%20style%3D%22rounded%3D0%3BwhiteSpace%3Dwrap%3Bhtml%3D1%3BfillColor%3D%23dae8fc%3BstrokeColor%3D%236c8ebf%3B%22%20vertex%3D%221%22%20parent%3D%221%22%3E%3CmxGeometry%20x%3D%22610%22%20y%3D%22480%22%20width%3D%2290%22%20height%3D%2240%22%20as%3D%22geometry%22%2F%3E%3C%2FmxCell%3E%3C%2Froot%3E%3C%2FmxGraphModel%3E&amp;lt;/span&amp;gt;&quot; style=&quot;rounded=0;whiteSpace=wrap;html=1;fillColor=#fff2cc;strokeColor=#d6b656;container=0;rotation=90;fontFamily=Times New Roman;&quot; vertex=&quot;1&quot; parent=&quot;1&quot;&gt;&lt;mxGeometry x=&quot;51.968438750072465&quot; y=&quot;729.9394387001478&quot; width=&quot;22.730021682416364&quot; height=&quot;10.609466315586669&quot; as=&quot;geometry&quot;/&gt;&lt;/mxCell&gt;&lt;mxCell id=&quot;143&quot; value=&quot;&amp;lt;span style=&amp;quot;color: rgba(0, 0, 0, 0); font-size: 0px; text-align: start; text-wrap: nowrap;&amp;quot;&amp;gt;%3CmxGraphModel%3E%3Croot%3E%3CmxCell%20id%3D%220%22%2F%3E%3CmxCell%20id%3D%221%22%20parent%3D%220%22%2F%3E%3CmxCell%20id%3D%222%22%20value%3D%22%22%20style%3D%22rounded%3D0%3BwhiteSpace%3Dwrap%3Bhtml%3D1%3BfillColor%3D%23dae8fc%3BstrokeColor%3D%236c8ebf%3B%22%20vertex%3D%221%22%20parent%3D%221%22%3E%3CmxGeometry%20x%3D%22610%22%20y%3D%22480%22%20width%3D%2290%22%20height%3D%2240%22%20as%3D%22geometry%22%2F%3E%3C%2FmxCell%3E%3C%2Froot%3E%3C%2FmxGraphModel%3E&amp;lt;/span&amp;gt;&quot; style=&quot;rounded=0;whiteSpace=wrap;html=1;fillColor=#fff2cc;strokeColor=#d6b656;container=0;rotation=90;fontFamily=Times New Roman;&quot; vertex=&quot;1&quot; parent=&quot;1&quot;&gt;&lt;mxGeometry x=&quot;41.27555220592498&quot; y=&quot;729.9394387001478&quot; width=&quot;22.730021682416364&quot; height=&quot;10.609466315586669&quot; as=&quot;geometry&quot;/&gt;&lt;/mxCell&gt;&lt;mxCell id=&quot;144&quot; value=&quot;&amp;lt;span style=&amp;quot;color: rgba(0, 0, 0, 0); font-size: 0px; text-align: start; text-wrap: nowrap;&amp;quot;&amp;gt;%3CmxGraphModel%3E%3Croot%3E%3CmxCell%20id%3D%220%22%2F%3E%3CmxCell%20id%3D%221%22%20parent%3D%220%22%2F%3E%3CmxCell%20id%3D%222%22%20value%3D%22%22%20style%3D%22rounded%3D0%3BwhiteSpace%3Dwrap%3Bhtml%3D1%3BfillColor%3D%23dae8fc%3BstrokeColor%3D%236c8ebf%3B%22%20vertex%3D%221%22%20parent%3D%221%22%3E%3CmxGeometry%20x%3D%22610%22%20y%3D%22480%22%20width%3D%2290%22%20height%3D%2240%22%20as%3D%22geometry%22%2F%3E%3C%2FmxCell%3E%3C%2Froot%3E%3C%2FmxGraphModel%3E&amp;lt;/span&amp;gt;&quot; style=&quot;rounded=0;whiteSpace=wrap;html=1;fillColor=#fff2cc;strokeColor=#d6b656;container=0;rotation=90;fontFamily=Times New Roman;&quot; vertex=&quot;1&quot; parent=&quot;1&quot;&gt;&lt;mxGeometry x=&quot;31.346443272073742&quot; y=&quot;729.9394387001478&quot; width=&quot;22.730021682416364&quot; height=&quot;10.609466315586669&quot; as=&quot;geometry&quot;/&gt;&lt;/mxCell&gt;&lt;mxCell id=&quot;145&quot; value=&quot;&amp;lt;span style=&amp;quot;color: rgba(0, 0, 0, 0); font-size: 0px; text-align: start; text-wrap: nowrap;&amp;quot;&amp;gt;%3CmxGraphModel%3E%3Croot%3E%3CmxCell%20id%3D%220%22%2F%3E%3CmxCell%20id%3D%221%22%20parent%3D%220%22%2F%3E%3CmxCell%20id%3D%222%22%20value%3D%22%22%20style%3D%22rounded%3D0%3BwhiteSpace%3Dwrap%3Bhtml%3D1%3BfillColor%3D%23dae8fc%3BstrokeColor%3D%236c8ebf%3B%22%20vertex%3D%221%22%20parent%3D%221%22%3E%3CmxGeometry%20x%3D%22610%22%20y%3D%22480%22%20width%3D%2290%22%20height%3D%2240%22%20as%3D%22geometry%22%2F%3E%3C%2FmxCell%3E%3C%2Froot%3E%3C%2FmxGraphModel%3E&amp;lt;/span&amp;gt;&quot; style=&quot;rounded=0;whiteSpace=wrap;html=1;fillColor=#fff2cc;strokeColor=#d6b656;container=0;rotation=90;fontFamily=Times New Roman;&quot; vertex=&quot;1&quot; parent=&quot;1&quot;&gt;&lt;mxGeometry x=&quot;26&quot; y=&quot;704.0561299852288&quot; width=&quot;22.730021682416364&quot; height=&quot;10.609466315586669&quot; as=&quot;geometry&quot;/&gt;&lt;/mxCell&gt;&lt;mxCell id=&quot;146&quot; value=&quot;&amp;lt;span style=&amp;quot;color: rgba(0, 0, 0, 0); font-size: 0px; text-align: start; text-wrap: nowrap;&amp;quot;&amp;gt;%3CmxGraphModel%3E%3Croot%3E%3CmxCell%20id%3D%220%22%2F%3E%3CmxCell%20id%3D%221%22%20parent%3D%220%22%2F%3E%3CmxCell%20id%3D%222%22%20value%3D%22%22%20style%3D%22rounded%3D0%3BwhiteSpace%3Dwrap%3Bhtml%3D1%3BfillColor%3D%23dae8fc%3BstrokeColor%3D%236c8ebf%3B%22%20vertex%3D%221%22%20parent%3D%221%22%3E%3CmxGeometry%20x%3D%22610%22%20y%3D%22480%22%20width%3D%2290%22%20height%3D%2240%22%20as%3D%22geometry%22%2F%3E%3C%2FmxCell%3E%3C%2Froot%3E%3C%2FmxGraphModel%3E" style="rounded=1;whiteSpace=wrap;html=1;fillColor=#e1d5e7;strokeColor=#9673a6;strokeWidth=2;fontSize=22;fontFamily=Times New Roman;opacity=26;" vertex="1" parent="1">
          <mxGeometry x="1050" y="4350" width="1050" height="650" as="geometry" />
        </mxCell>
      </root>
    </mxGraphModel>
  </diagram>
</mxfile>
